<?xml version="1.0" standalone="no"?>
<!DOCTYPE svg PUBLIC "-//W3C//DTD SVG 20010904//EN"
 "http://www.w3.org/TR/2001/REC-SVG-20010904/DTD/svg10.dtd">
<svg version="1.0" xmlns="http://www.w3.org/2000/svg"
 width="992.000000pt" height="992.000000pt" viewBox="0 0 992.000000 992.000000"
 preserveAspectRatio="xMidYMid meet">
<metadata>
Created by potrace 1.11, written by Peter Selinger 2001-2013
</metadata>
<g transform="translate(0.000000,992.000000) scale(0.100000,-0.100000)"
fill="#000000" stroke="none">
<path d="M5022 8853 c-41 -20 -69 -55 -82 -103 -7 -25 -9 -717 -8 -2029 l3
-1992 76 138 c42 76 298 536 569 1023 271 487 533 957 582 1046 109 196 157
259 249 323 98 69 178 95 283 89 146 -8 264 -86 329 -217 l32 -66 0 -1705 0
-1705 -32 -68 c-44 -93 -119 -169 -209 -214 -64 -31 -85 -36 -166 -40 -78 -4
-104 -2 -158 17 -168 57 -279 194 -301 373 -6 50 -9 397 -7 885 2 441 1 802
-2 802 -3 0 -38 -64 -79 -143 -41 -78 -158 -302 -261 -497 -103 -195 -273
-520 -380 -722 -106 -202 -209 -386 -229 -409 -19 -23 -61 -59 -93 -80 -51
-32 -84 -44 -185 -65 l-23 -4 0 -883 0 -883 23 -44 c43 -86 147 -112 236 -59
185 111 1551 915 2371 1396 301 177 562 337 584 358 21 20 48 58 60 84 l21 46
0 1750 0 1750 -27 50 c-48 90 -16 69 -713 470 -132 76 -370 213 -530 305 -159
91 -396 227 -525 302 -1356 781 -1278 738 -1330 738 -25 0 -60 -8 -78 -17z"/>
<path d="M3065 7327 c-97 -32 -198 -128 -237 -225 l-23 -57 -3 -1655 c-2
-1157 1 -1671 8 -1707 27 -127 119 -245 235 -302 236 -115 517 7 595 258 19
61 20 95 20 932 0 478 3 869 8 869 4 0 72 -125 152 -277 80 -153 220 -419 311
-593 91 -173 232 -442 314 -598 155 -296 199 -360 279 -407 48 -28 104 -49
159 -59 l37 -7 0 606 0 605 -393 708 c-217 389 -508 912 -647 1162 -139 250
-273 486 -298 523 -53 82 -143 159 -232 201 -55 25 -79 31 -155 33 -55 2 -106
-2 -130 -10z"/>
</g>
</svg>
