<svg width="24" height="24" viewBox="0 0 24 24" fill="none" xmlns="http://www.w3.org/2000/svg">
<g clip-path="url(#clip0)">
<path d="M13.0078 19.1916C12.8568 18.7763 12.4584 18.4974 12.0168 18.4974C11.8938 18.4974 11.7725 18.5189 11.6561 18.5612C11.1097 18.7601 10.827 19.3665 11.0258 19.913C11.1769 20.3282 11.5752 20.6071 12.0169 20.6071C12.1399 20.6071 12.2612 20.5856 12.3775 20.5433C12.924 20.3444 13.2067 19.738 13.0078 19.1916ZM12.1371 19.8826C12.0981 19.8968 12.0577 19.904 12.017 19.904C11.8697 19.904 11.7369 19.811 11.6865 19.6725C11.6202 19.4904 11.7145 19.2882 11.8966 19.2219C11.9355 19.2077 11.976 19.2006 12.0167 19.2006C12.164 19.2006 12.2967 19.2936 12.3471 19.4321C12.4135 19.6142 12.3192 19.8163 12.1371 19.8826Z" fill="#333333"/>
<path d="M23.9787 15.9497L23.4976 14.6283C23.4647 14.5379 23.3986 14.4693 23.318 14.431C23.3173 14.4307 23.3166 14.4303 23.3159 14.43C23.3107 14.4275 23.3052 14.4255 23.2998 14.4233C23.2947 14.4213 23.2898 14.4189 23.2846 14.4171C23.2834 14.4166 23.2821 14.4164 23.2808 14.416C23.2075 14.3909 23.1256 14.3895 23.0471 14.4181L21.8975 14.8362L19.452 8.11682C19.452 8.11663 19.4518 8.11649 19.4518 8.11635L18.4902 5.47411C18.4396 5.33583 18.3069 5.24297 18.1597 5.24297C18.119 5.24297 18.0782 5.25001 18.0397 5.26407C17.8574 5.33016 17.7632 5.53266 17.8293 5.71453L18.6712 8.02696L14.1564 9.6701C14.1564 9.6701 14.1563 9.6701 14.1562 9.67015C14.1561 9.6702 14.156 9.67029 14.1558 9.67029L11.4034 10.672L9.55958 5.60696L11.9824 4.72524L12.5035 6.15652C12.5536 6.2948 12.6863 6.38812 12.8335 6.38812C12.8747 6.38812 12.915 6.38109 12.9539 6.36652L14.7159 5.72527C14.804 5.69339 14.8743 5.62871 14.9142 5.54386C14.9436 5.48077 14.9532 5.41201 14.9434 5.34483C14.9434 5.34446 14.9434 5.34408 14.9433 5.34376C14.942 5.33461 14.94 5.32543 14.9379 5.31638C14.9373 5.3138 14.937 5.31137 14.9364 5.30879C14.9335 5.2974 14.93 5.2861 14.9259 5.27485L14.4051 3.84353L16.8274 2.96196L17.3483 4.39309C17.399 4.53137 17.5316 4.62465 17.6788 4.62465C17.7196 4.62465 17.7604 4.61762 17.7993 4.60309C17.9811 4.53699 18.0754 4.33492 18.0093 4.15262L17.368 2.39065C17.3237 2.26966 17.2167 2.18346 17.0919 2.16377C17.0741 2.16096 17.0559 2.15951 17.0376 2.15951C16.9968 2.15951 16.956 2.16654 16.9176 2.1806L13.8358 3.30236C13.8353 3.30255 13.8347 3.3026 13.8342 3.30278C13.8333 3.30311 13.8325 3.30358 13.8315 3.30391L12.0754 3.94319C12.0743 3.94356 12.0733 3.94365 12.0723 3.94403C12.0705 3.94469 12.0689 3.94553 12.0671 3.94619L8.98893 5.06663C8.90081 5.09851 8.83049 5.16319 8.79065 5.24804C8.75081 5.33335 8.74659 5.42893 8.77893 5.5171L10.8629 11.2431L12.8669 16.7495C12.6129 16.6719 12.3461 16.6283 12.0729 16.623L6.99596 2.67396C6.66446 1.76323 5.65384 1.292 4.74302 1.6234C4.74288 1.62345 4.74274 1.62354 4.7426 1.62359L0.23217 3.25033C0.232123 3.25038 0.232029 3.25038 0.231936 3.25042C0.231701 3.25052 0.231467 3.25057 0.231186 3.25066C0.223076 3.25361 0.215389 3.25713 0.207655 3.2606C0.204701 3.26191 0.201608 3.26299 0.198701 3.26439C0.191108 3.268 0.183889 3.27222 0.17667 3.27635C0.173717 3.27803 0.170577 3.27949 0.16767 3.28131C0.160733 3.28553 0.154264 3.29022 0.147702 3.29486C0.144796 3.29692 0.141702 3.2988 0.138889 3.30091C0.132796 3.30555 0.127124 3.31056 0.121358 3.31558C0.118452 3.31816 0.115311 3.32046 0.112499 3.32308C0.107061 3.32805 0.102093 3.33353 0.0970302 3.33883C0.0942646 3.34178 0.0913115 3.34446 0.0886396 3.34746C0.0838584 3.35285 0.0794991 3.35861 0.075046 3.36428C0.0725147 3.36747 0.0697491 3.37056 0.0673585 3.37389C0.0633273 3.37942 0.0597648 3.38524 0.0560617 3.391C0.0536711 3.39475 0.0510461 3.39831 0.0487961 3.40211C0.0454211 3.40783 0.0425149 3.41383 0.039468 3.41974C0.0373587 3.42381 0.0350149 3.4278 0.0330462 3.43197C0.0303275 3.43778 0.0281243 3.44378 0.0256869 3.44974C0.0238588 3.45428 0.0217963 3.4586 0.0202025 3.46319C0.01814 3.469 0.0165463 3.475 0.0148119 3.48091C0.0133588 3.48578 0.0116713 3.49061 0.0104057 3.49558C0.00895259 3.50139 0.00796822 3.50739 0.00679635 3.5133C0.0057651 3.51845 0.00449949 3.52361 0.00370262 3.52881C0.00276512 3.53481 0.002437 3.54091 0.00182763 3.54695C0.00131201 3.5522 0.000515135 3.55745 0.000233887 3.56275C-9.42361e-05 3.56894 0.000140138 3.57513 0.000140138 3.58131C0.000140138 3.58661 -0.000141111 3.59191 9.32629e-05 3.5972C0.000374511 3.60348 0.00126513 3.60981 0.0018745 3.61609C0.00239012 3.6213 0.00267137 3.62655 0.00342137 3.6318C0.00435886 3.63803 0.00585885 3.64427 0.00712447 3.6505C0.00820259 3.6558 0.00899946 3.66114 0.010312 3.66644C0.0118588 3.67267 0.0140619 3.67881 0.0159838 3.685C0.0175775 3.69011 0.0188432 3.69531 0.0206713 3.70042C0.0207181 3.70052 0.020765 3.70066 0.0208119 3.70075C0.0208588 3.70098 0.0209056 3.70117 0.0209994 3.70141L0.501981 5.0228C0.50559 5.03274 0.510559 5.04179 0.514918 5.05121C0.51834 5.05852 0.521106 5.0663 0.524996 5.07329C0.530481 5.08318 0.53709 5.09199 0.543418 5.10123C0.547403 5.10699 0.550778 5.11332 0.55509 5.1188C0.562637 5.12851 0.571262 5.13713 0.579699 5.14585C0.583637 5.14993 0.587105 5.15457 0.59123 5.15846C0.600746 5.16741 0.611199 5.17519 0.621558 5.18298C0.625308 5.18583 0.628683 5.18916 0.632527 5.19179C0.64373 5.19952 0.65573 5.20604 0.66773 5.21237C0.671292 5.21424 0.674574 5.21668 0.678183 5.21846C0.690464 5.22446 0.703355 5.2291 0.716245 5.2336C0.719995 5.23491 0.723511 5.23679 0.727308 5.23801C0.740526 5.24218 0.75412 5.24485 0.767808 5.24747C0.771558 5.24818 0.775214 5.24949 0.779011 5.25005C0.796542 5.25282 0.814401 5.25418 0.832401 5.25418C0.842338 5.25418 0.852323 5.25371 0.862354 5.25291C0.864416 5.25273 0.866432 5.2523 0.868495 5.25212C0.876463 5.25127 0.884385 5.25038 0.892354 5.24902C0.89601 5.24837 0.899666 5.24738 0.903322 5.24663C0.909651 5.24532 0.915979 5.2441 0.92226 5.24241C0.928963 5.24068 0.935572 5.23838 0.942228 5.23618C0.945369 5.23519 0.94851 5.23435 0.951603 5.23322L0.951978 5.23308C0.952166 5.23304 0.952353 5.23294 0.952541 5.2329C0.952681 5.23285 0.952822 5.23276 0.952963 5.23271L5.13358 3.72484L10.0912 17.3454C9.20685 18.1189 8.83856 19.3856 9.26395 20.5543C9.68376 21.7076 10.7901 22.4826 12.0171 22.4826C12.3584 22.4826 12.6955 22.4229 13.0188 22.3052C13.7542 22.0376 14.3412 21.4997 14.672 20.7905C14.8478 20.4135 14.939 20.0122 14.9466 19.6084L23.7685 16.4003C23.7685 16.4003 23.7685 16.4003 23.7686 16.4003H23.7686C23.771 16.3994 23.7731 16.3983 23.7754 16.3974C23.7844 16.394 23.7932 16.3904 23.8017 16.3863C23.8053 16.3846 23.8087 16.3825 23.8122 16.3806C23.8192 16.377 23.8261 16.3735 23.8327 16.3694C23.8365 16.3671 23.8399 16.3644 23.8436 16.362C23.8496 16.358 23.8557 16.3541 23.8614 16.3498C23.8633 16.3483 23.8649 16.3468 23.8666 16.3453C23.8739 16.3396 23.881 16.3338 23.8877 16.3276C23.8889 16.3264 23.8899 16.3252 23.891 16.3241C23.8981 16.3173 23.905 16.3104 23.9115 16.3031C23.9129 16.3016 23.9139 16.3 23.9153 16.2985C23.9213 16.2913 23.9273 16.2841 23.9328 16.2766C23.9334 16.2758 23.9339 16.2749 23.9344 16.2741C23.9404 16.2657 23.9461 16.2571 23.9513 16.2483C23.9522 16.2467 23.953 16.2449 23.9539 16.2433C23.9586 16.2351 23.963 16.2269 23.967 16.2185C23.9685 16.2151 23.9698 16.2116 23.9712 16.2082C23.9742 16.2013 23.9772 16.1944 23.9798 16.1872C23.9815 16.1823 23.9828 16.1773 23.9843 16.1723C23.9861 16.1665 23.9881 16.1608 23.9895 16.1549C23.9917 16.1463 23.9933 16.1375 23.9948 16.1286C23.9952 16.1263 23.9958 16.1241 23.9962 16.1218C24.0045 16.0657 23.9994 16.0067 23.9787 15.9497ZM13.7445 4.084L14.145 5.18508L13.0438 5.58586L12.6431 4.48482L13.7445 4.084ZM15.8285 9.80993L16.2293 10.9109L15.1278 11.3118L14.7271 10.2108L15.8285 9.80993ZM11.6441 11.3328L14.0665 10.4512L14.5876 11.8825C14.6378 12.0207 14.7704 12.114 14.9181 12.114C14.9589 12.114 14.9992 12.1065 15.0381 12.0924L16.8 11.4512C16.9824 11.3851 17.0766 11.183 17.01 11.0007L16.489 9.56951L18.9118 8.68775L21.2371 15.0762L14.2228 17.6269C14.0911 17.4765 13.945 17.3399 13.7866 17.2198L11.6441 11.3328ZM5.67451 3.15485C5.67245 3.14922 5.66987 3.14393 5.66758 3.13839C5.66528 3.133 5.66322 3.12743 5.66069 3.12213C5.65839 3.1173 5.65567 3.11289 5.65319 3.10825C5.65009 3.10249 5.64714 3.09658 5.64376 3.09105C5.64142 3.08725 5.63875 3.08378 5.63626 3.08008C5.63228 3.07408 5.62844 3.06799 5.62408 3.06232C5.62183 3.05932 5.61925 3.05664 5.6169 3.05369C5.61203 3.04764 5.6072 3.0416 5.6019 3.03593C5.5998 3.03363 5.5974 3.03157 5.5952 3.02932C5.58939 3.02341 5.58362 3.0175 5.57744 3.01202C5.57565 3.01047 5.57373 3.00911 5.57195 3.00761C5.56511 3.00175 5.55817 2.99599 5.5509 2.99074C5.54987 2.98999 5.54875 2.98943 5.54772 2.98863C5.53956 2.98282 5.53122 2.97729 5.52259 2.97218C5.52194 2.9718 5.52123 2.97147 5.52058 2.97115C5.47258 2.94325 5.4182 2.9268 5.36195 2.92385C5.36144 2.92385 5.36097 2.9239 5.36045 2.92385C5.34958 2.92333 5.33866 2.92329 5.32764 2.9238C5.32562 2.9239 5.32361 2.92427 5.32159 2.92441C5.31213 2.92502 5.30266 2.92577 5.29319 2.92718C5.28864 2.92788 5.28414 2.929 5.27959 2.9299C5.27266 2.93116 5.26567 2.93233 5.25873 2.93407C5.25086 2.93604 5.24303 2.93871 5.2352 2.94119C5.23173 2.94232 5.22822 2.94316 5.22475 2.94438L5.22428 2.94457C5.22414 2.94461 5.22395 2.94466 5.22377 2.94471C5.22363 2.94475 5.22348 2.94485 5.22334 2.9449L1.04273 4.45276L0.802214 3.79202L4.98231 2.28434C4.98241 2.28429 4.98246 2.28424 4.98255 2.28424C4.98278 2.28415 4.98302 2.2841 4.9833 2.28401C5.52986 2.08512 6.13618 2.36787 6.33507 2.91438L11.3523 16.6992C11.2384 16.7258 11.1256 16.7588 11.0146 16.7993C10.9027 16.84 10.7953 16.8876 10.6917 16.9401L5.67451 3.15485ZM14.0346 20.4932C13.7833 21.0322 13.3371 21.4411 12.7783 21.6444C12.5322 21.734 12.276 21.7794 12.017 21.7794C11.0845 21.7794 10.2436 21.1904 9.9246 20.3137C9.50469 19.1601 10.1016 17.8799 11.2553 17.46C11.5014 17.3704 11.7575 17.325 12.0166 17.325C12.949 17.325 13.7899 17.914 14.109 18.7908C14.3124 19.3496 14.286 19.9542 14.0346 20.4932ZM14.8696 18.8881C14.8429 18.7745 14.8102 18.6617 14.7697 18.5503C14.7292 18.439 14.6821 18.3313 14.6293 18.2273L22.9571 15.1989L23.1976 15.8597L14.8696 18.8881Z" fill="white"/>
</g>
<defs>
<clipPath id="clip0">
<rect width="24" height="24" fill="white"/>
</clipPath>
</defs>
</svg>
