<svg width="154" height="27" viewBox="0 0 154 27" fill="none" xmlns="http://www.w3.org/2000/svg">
<path d="M0.826416 25.8076L5.33857 14.8052H8.16692L12.6716 25.8076H9.52552L8.74995 23.8572H4.6663L3.91303 25.8076H0.826416ZM5.5307 21.5026H7.90868L6.72692 18.3939L5.5307 21.5026Z" fill="white"/>
<path d="M16.7231 25.8075V14.8813H21.7183C23.2554 14.8813 24.4021 15.2749 25.1591 16.061C25.7826 16.7098 26.0945 17.5787 26.0945 18.6666C26.0945 19.466 25.9036 20.1447 25.5227 20.7036C25.1417 21.2616 24.6111 21.6888 23.9322 21.9851L26.4577 25.8075H23.0736L20.9394 22.4856H19.6544V25.8075H16.7231ZM19.6548 20.131H21.5898C22.0869 20.131 22.4736 20.0146 22.7493 19.7819C23.0249 19.5495 23.1629 19.2277 23.1629 18.8167C23.1629 18.4015 23.0236 18.0847 22.7456 17.8669C22.4675 17.6499 22.0774 17.5403 21.575 17.5403H19.6548V20.1311L19.6548 20.131Z" fill="white"/>
<path d="M30.0273 17.5408V14.8818H39.3169V17.5408H36.134V25.8079H33.2028V17.5408H30.0273Z" fill="white"/>
<path d="M43.62 25.8075V14.8813H48.6148C50.1519 14.8813 51.2994 15.2749 52.0563 16.061C52.6803 16.7098 52.9918 17.5787 52.9918 18.6666C52.9918 19.466 52.8009 20.1447 52.4195 20.7036C52.0394 21.2616 51.5089 21.6888 50.8291 21.9851L53.3546 25.8075H49.9709L47.8367 22.4856H46.5517V25.8075H43.62H43.62ZM46.5517 20.131H48.4867C48.9838 20.131 49.3705 20.0146 49.6461 19.7819C49.9217 19.5495 50.0598 19.2277 50.0598 18.8167C50.0598 18.4015 49.9205 18.0847 49.6424 17.8669C49.3644 17.6499 48.9743 17.5403 48.4718 17.5403H46.5517V20.1311L46.5517 20.131Z" fill="white"/>
<path d="M57.154 20.3487C57.154 19.5758 57.3002 18.84 57.5932 18.1417C57.8861 17.4425 58.2837 16.8388 58.7857 16.3307C59.2877 15.8221 59.8935 15.4183 60.6025 15.1186C61.3116 14.8185 62.0673 14.6685 62.8698 14.6685C63.6722 14.6685 64.4255 14.8172 65.1296 15.1148C65.8337 15.4119 66.4353 15.8131 66.9328 16.3191C67.4311 16.8248 67.824 17.4272 68.1108 18.1263C68.3976 18.8246 68.5418 19.5656 68.5418 20.3487C68.5418 21.1203 68.3955 21.8562 68.1038 22.557C67.8121 23.2579 67.4146 23.8611 66.9138 24.3693C66.413 24.877 65.8097 25.2799 65.1019 25.5796C64.3953 25.8793 63.6408 26.0289 62.8408 26.0289C61.7723 26.0289 60.8025 25.7761 59.9311 25.2709C59.0596 24.7666 58.3791 24.0811 57.889 23.2148C57.399 22.3498 57.1539 21.3944 57.1539 20.3487L57.154 20.3487ZM60.1596 20.3487C60.1596 21.1574 60.4157 21.8515 60.9277 22.4313C61.4397 23.0115 62.0871 23.301 62.8697 23.301C63.6623 23.301 64.3097 23.0141 64.8118 22.4424C65.3138 21.8703 65.565 21.1724 65.565 20.3483C65.565 19.5396 65.3089 18.8455 64.7969 18.2657C64.285 17.6859 63.6325 17.396 62.84 17.396C62.0574 17.396 61.4149 17.6825 60.9124 18.2546C60.4108 18.8267 60.1596 19.5246 60.1596 20.3487Z" fill="white"/>
<path d="M72.7412 20.3487C72.7412 19.5609 72.8817 18.8174 73.1635 18.1187C73.4453 17.4195 73.8304 16.8171 74.318 16.3115C74.8056 15.8055 75.3948 15.4056 76.0877 15.111C76.7807 14.8155 77.5216 14.6685 78.3095 14.6685C80.195 14.6685 81.6771 15.4299 82.7552 16.9518L80.6061 18.6759C79.9512 17.8232 79.1735 17.3965 78.2723 17.3965C77.5389 17.3965 76.9344 17.6804 76.4592 18.2487C75.984 18.8161 75.7464 19.5165 75.7464 20.3491C75.7464 21.1864 75.984 21.8881 76.4592 22.4535C76.9344 23.02 77.5385 23.3018 78.2723 23.3018C78.7893 23.3018 79.2285 23.1901 79.5905 22.9668C79.9524 22.7434 80.3107 22.4078 80.6648 21.9611L82.8729 23.5956C82.5134 24.0961 82.1333 24.5177 81.7321 24.8579C81.3309 25.1981 80.8263 25.479 80.2181 25.6999C79.6103 25.9194 78.9318 26.0298 78.1835 26.0298C77.184 26.0298 76.2695 25.7873 75.4398 25.3021C74.6101 24.8182 73.9531 24.14 73.468 23.269C72.9838 22.398 72.7412 21.4247 72.7412 20.3487L72.7412 20.3487Z" fill="white"/>
<path d="M87.1671 25.8075V14.8813H90.0988V19.3159L93.747 14.8813H97.2253L93.2152 19.5824L97.3579 25.8075H93.8354L91.1768 21.754L90.0988 22.9806V25.8075H87.1671H87.1671Z" fill="white"/>
<path d="M101.233 25.8075V14.8813H109.748V17.4567H104.135V19.11H109.216V21.5025H104.135V23.2321H109.822V25.8075H101.233H101.233Z" fill="white"/>
<path d="M113.754 17.5408V14.8818H123.044V17.5408H119.861V25.8079H116.93V17.5408H113.754Z" fill="white"/>
<path d="M126.549 24.1843L128.188 22.1729C129.248 23.0464 130.394 23.4834 131.627 23.4834C132.015 23.4834 132.311 23.416 132.518 23.2813C132.724 23.1466 132.828 22.9526 132.828 22.6986C132.828 22.465 132.706 22.2744 132.463 22.1273C132.219 21.9798 131.749 21.8225 131.052 21.6549C130.694 21.5684 130.383 21.4887 130.118 21.4149C129.854 21.3412 129.573 21.2486 129.277 21.1369C128.98 21.0253 128.727 20.9084 128.521 20.7865C128.313 20.6646 128.11 20.5175 127.913 20.3444C127.715 20.1718 127.557 19.985 127.438 19.7842C127.32 19.5834 127.225 19.3485 127.152 19.0795C127.081 18.8105 127.045 18.5155 127.045 18.1958C127.045 17.1645 127.417 16.3238 128.16 15.6737C128.903 15.0235 129.902 14.6982 131.156 14.6982C132.894 14.6982 134.348 15.1808 135.515 16.146L134.041 18.287C133.053 17.5708 132.066 17.2126 131.082 17.2126C130.738 17.2126 130.475 17.28 130.293 17.4147C130.112 17.5494 130.021 17.7259 130.021 17.9442C130.021 18.1983 130.143 18.3948 130.386 18.5346C130.63 18.6745 131.117 18.8305 131.848 19.0032C132.497 19.1507 133.047 19.3118 133.501 19.487C133.955 19.6622 134.364 19.8818 134.727 20.1461C135.09 20.4105 135.36 20.7314 135.537 21.11C135.715 21.4886 135.804 21.9315 135.804 22.4397C135.804 23.5422 135.415 24.4106 134.636 25.0454C133.856 25.6802 132.818 25.9978 131.517 25.9978C130.561 25.9978 129.653 25.8443 128.796 25.5369C127.937 25.2296 127.189 24.7789 126.549 24.1842L126.549 24.1843Z" fill="white"/>
<path d="M150.744 3.2998L138.153 6.14163L147.989 16.2901L150.744 3.2998Z" fill="#FF0000"/>
<path d="M153.171 0.794434L138.841 4.0289L150.037 15.58L153.171 0.794434Z" fill="white"/>
</svg>
