<svg width="22" height="26" viewBox="0 0 22 26" fill="none" xmlns="http://www.w3.org/2000/svg">
<path d="M18.6137 3.40648H16.2615V2.3542C16.2615 2.01374 15.8901 1.85901 15.5497 1.85901H13.7236C13.2904 0.621005 12.2071 0.00200396 10.9691 0.00200396C9.74472 -0.0440257 8.63106 0.706726 8.21454 1.85901H6.41944C6.07899 1.85901 5.73854 2.01374 5.73854 2.3542V3.40648H3.38628C1.99236 3.42135 0.851988 4.52097 0.786469 5.91341V23.6477C0.786469 25.0096 2.02447 25.9999 3.38628 25.9999H18.6137C19.9755 25.9999 21.2135 25.0096 21.2135 23.6477V5.91347C21.148 4.52097 20.0076 3.42135 18.6137 3.40648ZM6.97648 3.09701H8.67875C8.9759 3.06075 9.21457 2.83469 9.26682 2.53991C9.45011 1.74171 10.1504 1.16874 10.9691 1.14718C11.7802 1.17176 12.4699 1.74651 12.6404 2.53991C12.6959 2.84488 12.9503 3.07385 13.2594 3.09701H15.0236V5.57301H6.97648V3.09701ZM19.9755 23.6478C19.9755 24.3287 19.2946 24.762 18.6137 24.762H3.38628C2.70538 24.762 2.02447 24.3287 2.02447 23.6478V5.91347C2.08762 5.20472 2.67481 4.65752 3.38628 4.64454H5.73848V6.223C5.77118 6.56979 6.07153 6.8292 6.41938 6.81107H15.5496C15.9039 6.83045 16.2136 6.57459 16.2614 6.223V4.64448H18.6136C19.325 4.65752 19.9123 5.20466 19.9754 5.91341V23.6478H19.9755Z" fill="#333333"/>
<path d="M8.61679 13.8367C8.38463 13.5919 7.99921 13.5781 7.75016 13.8057L5.76935 15.6937L4.9337 14.827C4.70154 14.5823 4.31612 14.5686 4.06708 14.7961C3.82733 15.0473 3.82733 15.4425 4.06708 15.6937L5.336 16.9936C5.44584 17.1165 5.60448 17.1845 5.76929 17.1793C5.93255 17.177 6.0883 17.1102 6.20257 16.9936L8.61667 14.7033C8.856 14.4837 8.872 14.1117 8.65239 13.8724C8.64114 13.8599 8.62923 13.848 8.61679 13.8367Z" fill="#54C5B0"/>
<path d="M17.4997 15.1675H10.3812C10.0394 15.1675 9.76224 15.4446 9.76224 15.7865C9.76224 16.1284 10.0394 16.4055 10.3812 16.4055H17.4997C17.8416 16.4055 18.1187 16.1284 18.1187 15.7865C18.1187 15.4446 17.8416 15.1675 17.4997 15.1675Z" fill="#54C5B0"/>
<path d="M8.61679 8.88463C8.38463 8.63991 7.99921 8.62611 7.75016 8.85371L5.76935 10.7416L4.9337 9.87501C4.70154 9.63029 4.31612 9.61648 4.06708 9.84408C3.82733 10.0953 3.82733 10.4905 4.06708 10.7416L5.336 12.0415C5.44584 12.1645 5.60448 12.2325 5.76929 12.2273C5.93255 12.2249 6.0883 12.1582 6.20257 12.0415L8.61667 9.75126C8.856 9.53171 8.872 9.15968 8.65239 8.92041C8.64114 8.90791 8.62923 8.896 8.61679 8.88463Z" fill="#54C5B0"/>
<path d="M17.4997 10.2156H10.3812C10.0394 10.2156 9.76224 10.4927 9.76224 10.8346C9.76224 11.1765 10.0394 11.4536 10.3812 11.4536H17.4997C17.8416 11.4536 18.1187 11.1765 18.1187 10.8346C18.1187 10.4927 17.8416 10.2156 17.4997 10.2156Z" fill="#54C5B0"/>
<path d="M8.61679 18.7885C8.38463 18.5438 7.99921 18.5301 7.75016 18.7576L5.76935 20.6455L4.9337 19.7789C4.70154 19.5342 4.31612 19.5205 4.06708 19.748C3.82733 19.9992 3.82733 20.3944 4.06708 20.6455L5.336 21.9455C5.44584 22.0684 5.60448 22.1364 5.76929 22.1312C5.93255 22.1289 6.0883 22.0621 6.20257 21.9455L8.61667 19.6552C8.856 19.4356 8.872 19.0636 8.65239 18.8243C8.64114 18.8119 8.62923 18.8 8.61679 18.7885Z" fill="#54C5B0"/>
<path d="M17.4997 20.1195H10.3812C10.0394 20.1195 9.76224 20.3966 9.76224 20.7385C9.76224 21.0804 10.0394 21.3575 10.3812 21.3575H17.4997C17.8416 21.3575 18.1187 21.0804 18.1187 20.7385C18.1187 20.3966 17.8416 20.1195 17.4997 20.1195Z" fill="#54C5B0"/>
</svg>
