<svg width="35" height="35" viewBox="0 0 35 35" fill="none" xmlns="http://www.w3.org/2000/svg">
<g clip-path="url(#clip0)">
<path d="M33.3952 12.4272H29.9521L28.2116 5.60167C27.9929 4.74403 27.1172 4.22443 26.2598 4.44298L22.2916 5.45483C22.0239 5.52305 21.8623 5.7954 21.9305 6.06302C21.9988 6.33065 22.2711 6.49218 22.5387 6.4241L26.5069 5.41224C26.8303 5.33001 27.16 5.52572 27.2424 5.84885L27.4352 6.60498L1.21224 13.2916L1.01946 12.5356C0.979541 12.379 1.00299 12.2162 1.08543 12.0773C1.16794 11.9384 1.2996 11.8399 1.45614 11.8L19.4933 7.20059C19.761 7.13237 19.9226 6.86002 19.8544 6.5924C19.7861 6.32477 19.514 6.16324 19.2462 6.23132L1.20895 10.8307C0.35132 11.0494 -0.168484 11.925 0.050197 12.7826L3.74898 27.2879C3.93389 28.013 4.58829 28.4966 5.30449 28.4965C5.43533 28.4965 5.56836 28.4803 5.70084 28.4466L5.93764 28.3862V29.0017C5.93764 29.8867 6.65767 30.6067 7.54271 30.6067H33.3952C34.2802 30.6067 35.0002 29.8867 35.0002 29.0017V14.0323C35.0002 13.1472 34.2802 12.4272 33.3952 12.4272ZM5.93771 27.354L5.45379 27.4774C5.13066 27.5598 4.80069 27.3639 4.71825 27.0408L2.45419 18.162L5.93771 17.2737V27.354ZM5.93771 14.0322V16.2415L2.20707 17.1928L1.45942 14.2607L6.29153 13.0286C6.07046 13.3037 5.93771 13.6527 5.93771 14.0322ZM28.9199 12.4271H24.9443L28.6771 11.4753L28.9199 12.4271ZM27.6824 7.57404L28.43 10.5061L20.8964 12.4272H8.65013L27.6824 7.57404ZM33.3952 29.6065H7.54278C7.20926 29.6065 6.93787 29.3352 6.93787 29.0017V27.7426V14.0323C6.93787 13.6988 7.20919 13.4274 7.54278 13.4274H33.3952C33.7287 13.4274 34 13.6988 34 14.0323V29.0017C34 29.3352 33.7287 29.6065 33.3952 29.6065Z" fill="#333333"/>
<path d="M19.9079 24.7388H9.01115C8.73499 24.7388 8.51105 24.9626 8.51105 25.2389C8.51105 25.5151 8.73499 25.739 9.01115 25.739H19.9079C20.1841 25.739 20.408 25.5151 20.408 25.2389C20.408 24.9627 20.1842 24.7388 19.9079 24.7388Z" fill="#54C5B0"/>
<path d="M28.2672 15.9446C27.5489 15.9446 26.8842 16.1765 26.3424 16.5684C25.7841 16.1639 25.1143 15.9446 24.4154 15.9446C22.6 15.9446 21.123 17.4216 21.123 19.237C21.1231 21.0525 22.6001 22.5294 24.4155 22.5294C25.1144 22.5294 25.7841 22.3101 26.3424 21.9056C26.8842 22.2975 27.549 22.5294 28.2672 22.5294C30.0826 22.5294 31.5596 21.0525 31.5596 19.237C31.5596 17.4216 30.0826 15.9446 28.2672 15.9446ZM24.9788 19.3931C24.9794 19.406 24.9803 19.4187 24.981 19.4316C24.9834 19.4735 24.9867 19.5153 24.9906 19.5569C24.9916 19.5666 24.9925 19.5763 24.9935 19.586C25.0545 20.1709 25.2678 20.7203 25.6158 21.1896C25.2576 21.4107 24.8444 21.5291 24.4155 21.5291C23.1515 21.5291 22.1233 20.5009 22.1233 19.237C22.1234 17.9731 23.1516 16.9448 24.4155 16.9448C24.8444 16.9448 25.2576 17.0633 25.6158 17.2844C25.2679 17.7536 25.0545 18.303 24.9935 18.8879C24.9925 18.8976 24.9916 18.9073 24.9906 18.917C24.9867 18.9586 24.9835 19.0004 24.981 19.0423C24.9803 19.0551 24.9794 19.0678 24.9788 19.0807C24.9764 19.1326 24.9748 19.1846 24.9748 19.2369C24.9748 19.2892 24.9764 19.3412 24.9788 19.3931ZM28.2673 21.5292C27.6415 21.5292 27.0737 21.2769 26.6597 20.8689C26.6511 20.8605 26.6427 20.852 26.6343 20.8435C26.6152 20.8241 26.5963 20.8044 26.5779 20.7843C26.5729 20.7788 26.5679 20.7732 26.5628 20.7676C26.5412 20.7435 26.5199 20.7192 26.4993 20.6943C26.4992 20.6941 26.4991 20.694 26.499 20.6938C26.1719 20.2975 25.9751 19.7897 25.9751 19.2369C25.9751 18.6841 26.1719 18.1764 26.499 17.78C26.4991 17.7799 26.4992 17.7798 26.4992 17.7797C26.5199 17.7547 26.5413 17.7303 26.5629 17.7062C26.5679 17.7007 26.5729 17.6951 26.5779 17.6897C26.5964 17.6695 26.6153 17.6498 26.6344 17.6304C26.6428 17.6219 26.6511 17.6135 26.6596 17.6052C27.0737 17.1972 27.6415 16.9448 28.2673 16.9448C29.5312 16.9448 30.5595 17.9731 30.5595 19.237C30.5595 20.5009 29.5312 21.5292 28.2673 21.5292Z" fill="#54C5B0"/>
<path d="M12.6084 16.27H10.4149C9.38344 16.27 8.54431 17.1091 8.54431 18.1406V20.334C8.54424 21.3655 9.38344 22.2046 10.4149 22.2046H12.6084C13.6398 22.2046 14.479 21.3655 14.479 20.334V18.1406C14.479 17.1092 13.6399 16.27 12.6084 16.27ZM13.4787 19.506H12.4118C12.1356 19.506 11.9116 19.7298 11.9116 20.0061C11.9116 20.2823 12.1355 20.5062 12.4118 20.5062H13.4614C13.3812 20.9039 13.0293 21.2044 12.6083 21.2044H10.4149C9.99383 21.2044 9.64184 20.904 9.56173 20.5062H10.6114C10.8876 20.5062 11.1115 20.2823 11.1115 20.0061C11.1115 19.7298 10.8877 19.506 10.6114 19.506H9.5445V19.0726H10.6114C10.8876 19.0726 11.1115 18.8487 11.1115 18.5724C11.1115 18.2963 10.8877 18.0723 10.6114 18.0723H9.54792C9.58292 17.6243 9.95794 17.2702 10.4149 17.2702H12.6083C13.0652 17.2702 13.4402 17.6243 13.4752 18.0723H12.4118C12.1356 18.0723 11.9116 18.2962 11.9116 18.5724C11.9116 18.8486 12.1355 19.0726 12.4118 19.0726H13.4787V19.506Z" fill="#54C5B0"/>
<path d="M31.6547 26.9395H14.2413C13.9652 26.9395 13.7412 27.1633 13.7412 27.4396C13.7412 27.7158 13.9651 27.9397 14.2413 27.9397H31.6547C31.9309 27.9397 32.1548 27.7158 32.1548 27.4396C32.1548 27.1633 31.9309 26.9395 31.6547 26.9395Z" fill="#54C5B0"/>
<path d="M11.0825 26.9395H9.04445C8.76827 26.9395 8.54431 27.1633 8.54431 27.4396C8.54431 27.7158 8.7682 27.9397 9.04445 27.9397H11.0825C11.3587 27.9397 11.5827 27.7158 11.5827 27.4396C11.5827 27.1633 11.3587 26.9395 11.0825 26.9395Z" fill="#333333"/>
</g>
<defs>
<clipPath id="clip0">
<rect width="35" height="35" fill="white"/>
</clipPath>
</defs>
</svg>
