<svg width="27" height="27" viewBox="0 0 27 27" fill="none" xmlns="http://www.w3.org/2000/svg">
<path d="M14.3963 17.7736H21.594C21.8639 17.7736 22.0438 17.5937 22.0438 17.3238V13.275C22.0438 13.0051 21.8639 12.8252 21.594 12.8252H14.3963C14.1263 12.8252 13.9464 13.0051 13.9464 13.275V17.3238C13.9464 17.5936 14.1263 17.7736 14.3963 17.7736ZM14.8461 13.7249H21.1441V16.8739H14.8461V13.7249Z" fill="#54C5B0"/>
<path d="M2.24855 11.9256H5.84744C6.11736 11.9256 6.29728 11.7456 6.29728 11.4757C6.29728 11.2058 6.11736 11.0259 5.84744 11.0259H2.24855C1.97863 11.0259 1.79871 11.2058 1.79871 11.4757C1.79871 11.7456 1.97863 11.9256 2.24855 11.9256Z" fill="#54C5B0"/>
<path d="M7.64833 11.9256H11.2472C11.5171 11.9256 11.6971 11.7456 11.6971 11.4757C11.6971 11.2058 11.5171 11.0259 11.2472 11.0259H7.64833C7.37841 11.0259 7.19849 11.2058 7.19849 11.4757C7.19849 11.7456 7.37841 11.9256 7.64833 11.9256Z" fill="#54C5B0"/>
<path d="M2.24855 13.7249H8.0967C8.36662 13.7249 8.54654 13.545 8.54654 13.275C8.54654 13.0051 8.36662 12.8252 8.0967 12.8252H2.24855C1.97863 12.8252 1.79871 13.0051 1.79871 13.275C1.79871 13.545 1.97863 13.7249 2.24855 13.7249Z" fill="#54C5B0"/>
<path d="M11.2472 12.8252H9.8976C9.62768 12.8252 9.44775 13.0051 9.44775 13.275C9.44775 13.545 9.62768 13.7249 9.8976 13.7249H11.2472C11.5171 13.7249 11.697 13.545 11.697 13.275C11.697 13.0051 11.5171 12.8252 11.2472 12.8252Z" fill="#54C5B0"/>
<path d="M26.5867 7.24701C26.2718 6.84213 25.8669 6.61719 25.3721 6.57222L24.2924 6.44137V5.17762V4.27794C24.2924 3.28826 23.4827 2.47852 22.493 2.47852H1.79942C0.809747 2.47846 0 3.28821 0 4.27794V5.17767V8.77657V18.6735C0 19.486 0.545999 20.1769 1.28911 20.3983C1.26644 21.3083 1.95499 22.0983 2.87914 22.1824L23.6626 24.5216C23.7076 24.5216 23.7976 24.5216 23.8426 24.5216C24.7423 24.5216 25.552 23.8468 25.642 22.9921L26.9916 8.55162C27.0365 8.10172 26.9016 7.60686 26.5867 7.24701ZM0.899736 5.62751H23.3927V6.79717V8.32667H0.899736V5.62751ZM1.79942 3.3782H22.4929C22.9878 3.3782 23.3927 3.78307 23.3927 4.27794V4.72778H0.899736V4.27794C0.899736 3.78307 1.30461 3.3782 1.79942 3.3782ZM0.899736 18.6734V9.22635H23.3927V18.6734C23.3927 19.1683 22.9879 19.5731 22.493 19.5731H1.84444H1.79947C1.30461 19.5731 0.899736 19.1683 0.899736 18.6734ZM26.0918 8.37164L24.7423 22.8121C24.6973 23.307 24.2474 23.6668 23.7526 23.6219L3.01404 21.2826C2.5642 21.2377 2.24926 20.8777 2.20429 20.4729H22.4929C23.4826 20.4729 24.2924 19.6631 24.2924 18.6735V8.77651V7.29198L25.3271 7.38197C25.552 7.38197 25.7769 7.51692 25.9119 7.69685C26.0469 7.87678 26.1369 8.14669 26.0918 8.37164Z" fill="#333333"/>
</svg>
