<svg width="29" height="29" viewBox="0 0 29 29" fill="none" xmlns="http://www.w3.org/2000/svg">
<path d="M6.76639 19.0917C5.16703 19.0917 3.86639 20.3923 3.86639 21.9917C3.86639 23.591 5.16703 24.8917 6.76639 24.8917C8.36576 24.8917 9.66639 23.591 9.66639 21.9917C9.66639 20.3923 8.3657 19.0917 6.76639 19.0917ZM6.76639 23.925C5.70013 23.925 4.83308 23.0579 4.83308 21.9917C4.83308 20.9254 5.70019 20.0584 6.76639 20.0584C7.8326 20.0584 8.69971 20.9255 8.69971 21.9917C8.69971 23.0579 7.8326 23.925 6.76639 23.925Z" fill="#333333"/>
<path d="M28.9228 16.4136L24.5728 9.64691C24.4839 9.50865 24.3307 9.42505 24.1663 9.42505H18.8497C18.5824 9.42505 18.3664 9.64159 18.3664 9.90836V21.9917C18.3664 22.259 18.5824 22.475 18.8497 22.475H20.783V21.5083H19.333V10.3917H23.9024L28.033 16.8172V21.5084H25.6163V22.475H28.5163C28.7836 22.475 28.9997 22.259 28.9997 21.9917V16.675C28.9997 16.5827 28.9731 16.4914 28.9228 16.4136Z" fill="#54C5B0"/>
<path d="M23.1994 19.0917C21.6 19.0917 20.2994 20.3923 20.2994 21.9917C20.2994 23.591 21.6 24.8917 23.1994 24.8917C24.7987 24.8917 26.0994 23.591 26.0994 21.9917C26.0994 20.3923 24.7987 19.0917 23.1994 19.0917ZM23.1994 23.925C22.1331 23.925 21.2661 23.0579 21.2661 21.9917C21.2661 20.9254 22.1332 20.0584 23.1994 20.0584C24.2656 20.0584 25.1327 20.9255 25.1327 21.9917C25.1327 23.0579 24.2656 23.925 23.1994 23.925Z" fill="#333333"/>
<path d="M21.2669 15.7083V12.325H25.1336V11.3583H20.7836C20.5163 11.3583 20.3003 11.5748 20.3003 11.8416V16.1916C20.3003 16.4589 20.5163 16.6749 20.7836 16.6749H28.0336V15.7082H21.2669V15.7083Z" fill="#54C5B0"/>
<path d="M18.85 6.04175H0.483314C0.216537 6.04175 0 6.25828 0 6.52506V21.9917C0 22.259 0.216537 22.4751 0.483314 22.4751H4.35V21.5084H0.966686V7.00838H18.3667V21.5084H9.18331V22.4751H18.85C19.1173 22.4751 19.3333 22.259 19.3333 21.9917V6.52506C19.3333 6.25828 19.1173 6.04175 18.85 6.04175Z" fill="#333333"/>
<path d="M3.38322 19.575H0.483215V20.5416H3.38322V19.575Z" fill="black"/>
<path d="M18.3671 19.575H10.1504V20.5416H18.3671V19.575Z" fill="black"/>
<path d="M28.5175 19.575H26.5842V20.5416H28.5175V19.575Z" fill="#54C5B0"/>
<path d="M18.8501 7.97498H1.93341V8.94166H18.8501V7.97498Z" fill="black"/>
<path d="M7.24971 21.5083H6.28302V22.475H7.24971V21.5083Z" fill="#54C5B0"/>
<path d="M23.6837 21.5083H22.717V22.475H23.6837V21.5083Z" fill="#54C5B0"/>
<path d="M8.7001 4.10828H1.93341V5.07496H8.7001V4.10828Z" fill="#54C5B0"/>
<path d="M0.966686 4.10828H0V5.07496H0.966686V4.10828Z" fill="#54C5B0"/>
</svg>
