<svg width="33" height="32" viewBox="0 0 33 32" fill="none" xmlns="http://www.w3.org/2000/svg">
<g clip-path="url(#clip0)">
<path d="M0.581133 23.3356H2.34069C2.54639 25.1104 4.0497 26.4492 5.8361 26.4492C7.62287 26.4492 9.12582 25.1104 9.3317 23.3356H20.71C20.9163 25.1104 22.419 26.4492 24.2054 26.4492C25.9922 26.4492 27.495 25.1104 27.7012 23.3356H31.4137C31.7376 23.3356 32.0001 23.0731 32.0001 22.7492V6.13944C32.0001 5.81554 31.7376 5.55286 31.4137 5.55286H11.0618C10.7383 5.55286 10.4756 5.81554 10.4756 6.13944V9.42952H5.50761C5.31588 9.43007 5.13629 9.524 5.02673 9.68191L1.81863 14.274L0.56367 16.0336L0.106132 16.6847C0.0375659 16.7827 0.000617325 16.8992 0.000249675 17.0189V22.7317C-0.00434592 22.8891 0.0546615 23.0419 0.163853 23.1555C0.273044 23.2692 0.423596 23.3341 0.581133 23.3356ZM5.82434 25.095C4.52893 25.095 3.47838 24.0446 3.47838 22.7492C3.47838 21.4534 4.52893 20.4031 5.82434 20.4031C7.12011 20.4031 8.17048 21.4534 8.17048 22.7492C8.17048 24.0496 7.12489 25.1084 5.82434 25.1244V25.095ZM24.1937 25.095C22.8981 25.095 21.8475 24.0446 21.8475 22.7492C21.8475 21.4534 22.8981 20.4031 24.1937 20.4031C25.4896 20.4031 26.5398 21.4534 26.5398 22.7492C26.54 24.0496 25.4942 25.1084 24.1937 25.1244V25.095ZM30.8154 6.72584V17.2361H14.8918C14.5679 17.2361 14.3052 17.4986 14.3052 17.8225C14.3052 18.1464 14.5679 18.4091 14.8918 18.4091H30.8154V22.1626H27.6896C27.4834 20.388 25.9804 19.0494 24.1937 19.0494C22.4073 19.0494 20.9043 20.388 20.6983 22.1626H11.6484V9.39441H15.8828C16.2067 9.39441 16.4694 9.13172 16.4694 8.80782C16.4694 8.48393 16.2067 8.22124 15.8828 8.22124H11.6484V6.72584H30.8154ZM5.81276 10.6027H10.5047V22.1626H9.3317C9.12582 20.388 7.62287 19.0494 5.8361 19.0494C4.0497 19.0494 2.54639 20.388 2.34069 22.1626H1.16753V17.2065L1.34345 16.9543H8.49898C8.82287 16.9543 9.08537 16.692 9.08537 16.3681V12.028C9.08537 11.7042 8.82287 11.4415 8.49898 11.4415H5.21441L5.81276 10.6027ZM4.39346 12.6262H7.9124V15.7931H2.15871L4.39346 12.6262Z" fill="#333333"/>
<ellipse cx="17.6194" cy="8.87741" rx="0.619355" ry="0.619355" fill="#54C5B0"/>
<ellipse cx="19.6194" cy="8.87741" rx="0.619355" ry="0.619355" fill="#54C5B0"/>
<ellipse cx="21.6194" cy="8.87741" rx="0.619355" ry="0.619355" fill="#54C5B0"/>
</g>
<rect x="14" y="17" width="19" height="1.4" rx="0.7" fill="#54C5B0"/>
<defs>
<clipPath id="clip0">
<rect width="32" height="32" fill="white"/>
</clipPath>
</defs>
</svg>
