<svg width="28" height="28" viewBox="0 0 28 28" fill="none" xmlns="http://www.w3.org/2000/svg">
<path d="M3.25977 3.265V27.5194C3.25977 27.7771 3.46861 27.9859 3.72625 27.9859H21.4507C21.7081 27.9859 21.917 27.7771 21.917 27.5194V7.92945C21.917 7.91907 21.912 7.91023 21.911 7.90005C21.9087 7.85913 21.9007 7.81878 21.8872 7.78016C21.882 7.76518 21.8784 7.75077 21.8718 7.73617C21.8492 7.68545 21.8177 7.63914 21.7785 7.59957L17.1142 2.93531C17.0746 2.89592 17.0281 2.86441 16.977 2.84193C16.963 2.83598 16.9488 2.83098 16.9342 2.82656C16.8952 2.81312 16.8546 2.80505 16.8133 2.80236C16.8055 2.8037 16.7962 2.79871 16.7864 2.79871H3.72625C3.46861 2.79871 3.25977 3.00736 3.25977 3.265ZM20.3246 7.46296H17.2527V4.39105L20.3246 7.46296ZM4.19254 3.73148H16.32V7.92945C16.32 8.1869 16.5288 8.39574 16.7862 8.39574H20.9842V27.0532H4.19254V3.73148Z" fill="#333333"/>
<path d="M22.8483 24.2544V25.1872H24.2476C24.5052 25.1872 24.7141 24.9786 24.7141 24.7209V0.466483C24.7141 0.208842 24.5052 0 24.2476 0H6.52312C6.26548 0 6.05664 0.208842 6.05664 0.466483V1.86574H6.98961V0.932775H23.7811V24.2544H22.8483Z" fill="#54C5B0"/>
<path d="M6.99023 9.79512C6.99023 9.53754 7.19904 9.32874 7.45662 9.32874H17.7181C17.9757 9.32874 18.1845 9.53754 18.1845 9.79512C18.1845 10.0527 17.9757 10.2615 17.7181 10.2615H7.45662C7.19904 10.2615 6.99023 10.0527 6.99023 9.79512Z" fill="#54C5B0"/>
<path d="M6.99023 6.9965C6.99023 6.73888 7.19908 6.53003 7.45671 6.53003H10.2552C10.5129 6.53003 10.7217 6.73888 10.7217 6.9965C10.7217 7.25413 10.5129 7.46298 10.2552 7.46298H7.45671C7.19908 7.46298 6.99023 7.25413 6.99023 6.9965Z" fill="#333333"/>
<path d="M6.99023 12.5937C6.99023 12.336 7.19909 12.1272 7.45672 12.1272H13.9867C14.2444 12.1272 14.4532 12.336 14.4532 12.5937C14.4532 12.8513 14.2444 13.0602 13.9867 13.0602H7.45672C7.19909 13.0602 6.99023 12.8513 6.99023 12.5937Z" fill="#54C5B0"/>
<path d="M15.3848 12.5937C15.3848 12.336 15.5936 12.1272 15.8512 12.1272H17.7168C17.9744 12.1272 18.1833 12.336 18.1833 12.5937C18.1833 12.8513 17.9744 13.0602 17.7168 13.0602H15.8512C15.5936 13.0602 15.3848 12.8513 15.3848 12.5937Z" fill="#54C5B0"/>
<path d="M6.99023 14.9258H18.1845V15.8588H6.99023V14.9258Z" fill="#333333"/>
<path d="M6.99023 20.9894C6.99023 20.7318 7.19909 20.5229 7.45672 20.5229H17.718C17.9756 20.5229 18.1845 20.7318 18.1845 20.9894C18.1845 21.2471 17.9756 21.4559 17.718 21.4559H7.45672C7.19909 21.4559 6.99023 21.2471 6.99023 20.9894Z" fill="#333333"/>
<path d="M11.1875 18.1909C11.1875 17.9333 11.3963 17.7245 11.6539 17.7245H17.7176C17.9752 17.7245 18.184 17.9333 18.184 18.1909C18.184 18.4485 17.9752 18.6573 17.7176 18.6573H11.6539C11.3963 18.6573 11.1875 18.4485 11.1875 18.1909Z" fill="#54C5B0"/>
<path d="M6.99023 18.1909C6.99023 17.9333 7.19904 17.7245 7.45662 17.7245H9.78886C10.0464 17.7245 10.2552 17.9333 10.2552 18.1909C10.2552 18.4485 10.0464 18.6573 9.78886 18.6573H7.45662C7.19904 18.6573 6.99023 18.4485 6.99023 18.1909Z" fill="#54C5B0"/>
<path d="M6.99023 23.7882C6.99023 23.5306 7.19904 23.3218 7.45662 23.3218H8.38959C8.64717 23.3218 8.85598 23.5306 8.85598 23.7882C8.85598 24.0457 8.64717 24.2546 8.38959 24.2546H7.45662C7.19904 24.2546 6.99023 24.0457 6.99023 23.7882Z" fill="#54C5B0"/>
<path d="M9.78906 23.7882C9.78906 23.5306 9.99787 23.3218 10.2555 23.3218H17.7184C17.976 23.3218 18.1848 23.5306 18.1848 23.7882C18.1848 24.0457 17.976 24.2546 17.7184 24.2546H10.2554C9.99787 24.2546 9.78906 24.0457 9.78906 23.7882Z" fill="#333333"/>
</svg>
