<svg width="15" height="15" viewBox="0 0 15 15" fill="none" xmlns="http://www.w3.org/2000/svg">
<g clip-path="url(#clip0)">
<path d="M14.7568 6.79379C13.9149 5.71441 12.8245 4.82158 11.6034 4.21192C10.3569 3.58957 9.01585 3.26666 7.61596 3.24972C7.5774 3.24867 7.4226 3.24867 7.38404 3.24972C5.98418 3.26669 4.64315 3.58957 3.39663 4.21192C2.17551 4.82158 1.08511 5.71438 0.243237 6.79379C-0.0810789 7.2096 -0.0810789 7.79041 0.243237 8.20622C1.08508 9.2856 2.17551 10.1784 3.39663 10.7881C4.64315 11.4104 5.98415 11.7333 7.38404 11.7503C7.4226 11.7513 7.5774 11.7513 7.61596 11.7503C9.01582 11.7333 10.3569 11.4104 11.6034 10.7881C12.8245 10.1784 13.9149 9.28563 14.7568 8.20622C15.0811 7.79035 15.0811 7.2096 14.7568 6.79379ZM3.66924 10.2421C2.529 9.67285 1.51071 8.83906 0.724408 7.83092C0.572445 7.63607 0.572445 7.36393 0.724408 7.16908C1.51068 6.16095 2.52897 5.32716 3.66924 4.75786C3.99308 4.5962 4.32379 4.4564 4.66061 4.33804C3.79407 5.11699 3.24812 6.24585 3.24812 7.49999C3.24812 8.75419 3.7941 9.88314 4.66073 10.6621C4.3239 10.5437 3.99311 10.4038 3.66924 10.2421ZM7.50003 11.1417C5.49197 11.1417 3.85832 9.50802 3.85832 7.49996C3.85832 5.4919 5.49197 3.85828 7.50003 3.85828C9.50809 3.85828 11.1417 5.49193 11.1417 7.49999C11.1417 9.50805 9.50809 11.1417 7.50003 11.1417ZM14.2757 7.8309C13.4894 8.83903 12.4711 9.67282 11.3308 10.2421C11.0074 10.4036 10.6769 10.5428 10.3404 10.661C11.2064 9.88211 11.7519 8.7536 11.7519 7.49996C11.7519 6.24564 11.2058 5.11663 10.3392 4.33769C10.6761 4.45608 11.0069 4.59606 11.3309 4.75781C12.4711 5.3271 13.4894 6.16089 14.2757 7.16902C14.4276 7.3639 14.4276 7.63604 14.2757 7.8309Z" fill="#AAAAAA"/>
<path d="M7.50083 5.9415C6.64149 5.9415 5.94238 6.64061 5.94238 7.49995C5.94238 8.35928 6.64149 9.05839 7.50083 9.05839C8.36016 9.05839 9.05927 8.35928 9.05927 7.49995C9.0593 6.64061 8.36019 5.9415 7.50083 5.9415ZM7.50083 8.44823C6.97797 8.44823 6.55255 8.02287 6.55255 7.49995C6.55255 6.97705 6.97791 6.55169 7.50083 6.55169C8.02369 6.55169 8.44908 6.97705 8.44908 7.49995C8.44911 8.02287 8.02369 8.44823 7.50083 8.44823Z" fill="#AAAAAA"/>
</g>
<defs>
<clipPath id="clip0">
<rect width="15" height="15" fill="white"/>
</clipPath>
</defs>
</svg>
