<svg width="18" height="24" viewBox="0 0 18 24" fill="none" xmlns="http://www.w3.org/2000/svg">
<g clip-path="url(#clip0)">
<path d="M5.03098 5.27845C5.0303 4.76793 4.86256 4.27063 4.5516 3.85731C4.24065 3.44398 3.80234 3.1357 3.29905 2.97633L3.29905 0.238426C3.29936 0.207223 3.29325 0.176271 3.28108 0.147356C3.2689 0.118442 3.2509 0.09214 3.22811 0.0699697C3.20533 0.0477995 3.17821 0.0302009 3.14832 0.0181911C3.11844 0.00618137 3.08638 -1.45623e-06 3.05399 2.57268e-10L1.97672 2.57269e-10C1.91173 2.57269e-10 1.8494 0.0248794 1.80344 0.069165C1.75748 0.113451 1.73167 0.173515 1.73167 0.236144L1.73167 2.97405C1.22785 3.13269 0.788974 3.44077 0.477785 3.85424C0.166596 4.26771 -0.000976562 4.7654 -0.000976562 5.27617C-0.000976562 5.78693 0.166596 6.28463 0.477785 6.6981C0.788974 7.11157 1.22785 7.41964 1.73167 7.57829L1.73167 23.7639C1.73167 23.8265 1.75748 23.8865 1.80344 23.9308C1.8494 23.9751 1.91173 24 1.97672 24H3.05399C3.11899 24 3.18132 23.9751 3.22727 23.9308C3.27323 23.8865 3.29905 23.8265 3.29905 23.7639L3.29905 7.58057C3.80244 7.42135 4.24085 7.11311 4.55183 6.69975C4.8628 6.28639 5.03048 5.78901 5.03098 5.27845ZM2.51536 6.33368C2.29878 6.33368 2.08707 6.27179 1.90699 6.15584C1.72691 6.03989 1.58656 5.87509 1.50368 5.68227C1.4208 5.48945 1.39911 5.27728 1.44136 5.07258C1.48361 4.86789 1.58791 4.67986 1.74105 4.53229C1.89419 4.38471 2.08931 4.28421 2.30173 4.24349C2.51414 4.20277 2.73432 4.22367 2.93441 4.30354C3.1345 4.38341 3.30552 4.51866 3.42584 4.69219C3.54617 4.86572 3.61039 5.06974 3.61039 5.27845C3.61008 5.55822 3.49461 5.82645 3.28932 6.02428C3.08403 6.22211 2.80568 6.33338 2.51536 6.33368ZM11.3644 18.1238C11.3637 17.613 11.1959 17.1154 10.8847 16.7018C10.5735 16.2883 10.1349 15.9799 9.6313 15.8205C9.63188 15.816 9.63188 15.8114 9.6313 15.8068L9.6313 0.236144C9.631 0.173803 9.60524 0.114084 9.55961 0.0698949C9.51397 0.0257063 9.45213 0.000598731 9.38744 2.57267e-10L8.31016 2.57268e-10C8.24517 2.57268e-10 8.18284 0.0248794 8.13688 0.069165C8.09093 0.113451 8.06511 0.173515 8.06511 0.236144L8.06511 15.8068C8.06511 15.8068 8.06511 15.816 8.06511 15.8205C7.56144 15.9795 7.12278 16.2877 6.81176 16.7013C6.50075 17.1148 6.33328 17.6125 6.33328 18.1232C6.33328 18.6339 6.50075 19.1316 6.81176 19.5451C7.12278 19.9587 7.56144 20.2669 8.06511 20.4259V23.7639C8.06511 23.8265 8.09093 23.8865 8.13688 23.9308C8.18284 23.9751 8.24517 24 8.31016 24H9.38744C9.45254 24 9.51499 23.9752 9.56113 23.9309C9.60728 23.8867 9.63336 23.8266 9.63367 23.7639V20.4259C10.1366 20.266 10.5744 19.9576 10.8851 19.5443C11.1958 19.1311 11.3635 18.6341 11.3644 18.1238ZM8.8488 19.179C8.63222 19.179 8.42051 19.1171 8.24043 19.0012C8.06035 18.8852 7.92 18.7204 7.83712 18.5276C7.75424 18.3348 7.73255 18.1226 7.7748 17.9179C7.81706 17.7132 7.92135 17.5252 8.07449 17.3776C8.22764 17.23 8.42275 17.1295 8.63517 17.0888C8.84758 17.0481 9.06776 17.069 9.26785 17.1489C9.46794 17.2287 9.63896 17.364 9.75929 17.5375C9.87961 17.7111 9.94383 17.9151 9.94383 18.1238C9.94352 18.4035 9.82805 18.6718 9.62276 18.8696C9.41747 19.0674 9.13912 19.1787 8.8488 19.179ZM17.9997 9.12634C17.9987 8.61591 17.8308 8.11877 17.5199 7.70551C17.209 7.29226 16.7709 6.9839 16.2678 6.82422V0.236144C16.2678 0.205133 16.2615 0.174426 16.2492 0.145776C16.2368 0.117125 16.2188 0.091093 16.196 0.069165C16.1733 0.047237 16.1463 0.0298428 16.1165 0.0179754C16.0868 0.00610805 16.0549 2.57266e-10 16.0228 2.57266e-10L14.9455 2.57267e-10C14.8804 -7.24769e-07 14.8179 0.0248422 14.7718 0.0690953C14.7256 0.113348 14.6996 0.17341 14.6992 0.236144L14.6992 6.8208C14.196 6.98003 13.7578 7.28833 13.4471 7.70173C13.1365 8.11513 12.9692 8.61251 12.9692 9.12292C12.9692 9.63333 13.1365 10.1307 13.4471 10.5441C13.7578 10.9575 14.196 11.2658 14.6992 11.425L14.6992 23.7639C14.6996 23.8266 14.7256 23.8867 14.7718 23.9309C14.8179 23.9752 14.8804 24 14.9455 24H16.0228C16.0877 24 16.1501 23.9751 16.196 23.9308C16.242 23.8865 16.2678 23.8265 16.2678 23.7639V11.425C16.7704 11.2657 17.2082 10.9579 17.5191 10.5453C17.83 10.1327 17.9981 9.63623 17.9997 9.12634ZM15.4841 10.1782C15.2674 10.1782 15.0555 10.1162 14.8754 10.0001C14.6952 9.88397 14.5549 9.71896 14.4721 9.52595C14.3893 9.33293 14.3678 9.12058 14.4104 8.91579C14.4529 8.711 14.5576 8.52299 14.7111 8.37555C14.8646 8.22811 15.06 8.12788 15.2727 8.08755C15.4853 8.04722 15.7056 8.0686 15.9056 8.149C16.1057 8.22939 16.2764 8.36518 16.3963 8.53916C16.5162 8.71314 16.5799 8.91749 16.5791 9.12634C16.5779 9.40552 16.462 9.67287 16.2568 9.86996C16.0516 10.0671 15.7738 10.1779 15.4841 10.1782Z" fill="white"/>
</g>
<defs>
<clipPath id="clip0">
<rect width="18" height="24" fill="white"/>
</clipPath>
</defs>
</svg>
