<svg width="18" height="18" viewBox="0 0 18 18" fill="none" xmlns="http://www.w3.org/2000/svg">
<path d="M15.371 1.87067C14.6422 1.46918 13.8063 1.23828 12.9145 1.23828C11.3411 1.23828 9.93197 1.9553 9.00153 3.07964C8.0667 1.9553 6.65893 1.23828 5.08333 1.23828C4.19367 1.23828 3.35931 1.46918 2.6289 1.87067C1.06178 2.73855 0 4.40717 0 6.32478C0 6.87376 0.0893336 7.40025 0.251136 7.89282C1.12372 11.8151 9.00153 16.7619 9.00153 16.7619C9.00153 16.7619 16.8741 11.8152 17.7479 7.89282C17.9097 7.40025 18 6.87304 18 6.32478C18 4.40789 16.9382 2.73978 15.371 1.87067Z" fill="white"/>
</svg>
