<svg width="93" height="83" viewBox="0 0 93 83" fill="none" xmlns="http://www.w3.org/2000/svg">
<g clip-path="url(#clip0)">
<path d="M85.6243 6.80186C85.3834 6.55531 85.0505 6.41951 84.7057 6.4264C83.7126 6.43766 60.2274 6.83628 48.4817 18.5795C46.9961 20.0776 45.6908 21.7446 44.5926 23.5468C44.2503 23.1651 43.898 22.7903 43.5338 22.423C31.7843 10.6773 8.29039 10.2836 7.29855 10.2674C6.9525 10.2599 6.61896 10.3957 6.37679 10.6428C6.13211 10.8869 5.99632 11.2198 6.00008 11.5652C6.01197 12.5583 6.41058 36.0522 18.1557 47.7979C26.5479 56.1901 39.5582 57.4686 46.717 57.4686C48.8034 57.4686 50.3784 57.3609 51.2026 57.2883L56.6249 62.7106C57.128 63.1962 57.9271 63.1894 58.4215 62.695C58.9158 62.2006 58.9227 61.4009 58.4371 60.8984L53.0148 55.4761C53.0599 54.953 53.1187 54.137 53.1568 53.0794C59.5178 52.2146 67.895 49.9086 73.8417 43.9482C85.5899 32.1987 85.9873 8.71609 85.9998 7.72049C86.0035 7.37632 85.8683 7.04528 85.6243 6.80186ZM40.3248 42.7792L41.1809 33.4152C41.2453 32.71 40.7259 32.0861 40.0207 32.0216C39.3161 31.9572 38.6922 32.4766 38.6277 33.1818L37.9663 40.4213L34.8906 37.3457L35.7492 27.976C35.8136 27.2683 35.2917 26.6425 34.584 26.5781C33.8762 26.5142 33.2505 27.0361 33.186 27.7439L32.5252 34.9834L28.5391 30.9991L29.3951 21.6332C29.4596 20.9286 28.9396 20.3047 28.2349 20.2409C27.5297 20.1771 26.9064 20.6965 26.8426 21.4017L26.1799 28.64L19.0568 21.5168C18.7351 21.1833 18.2589 21.05 17.8102 21.167C17.3622 21.2847 17.0124 21.6345 16.8954 22.0825C16.7777 22.5306 16.9116 23.0074 17.2445 23.3291L24.3677 30.4522L17.1294 31.1143C16.4216 31.1462 15.8735 31.745 15.9048 32.4528C15.9361 33.1612 16.5355 33.7093 17.2433 33.6774H17.3616L26.7268 32.8214L30.7117 36.8075L23.4772 37.4533C22.7695 37.4852 22.2213 38.0847 22.2532 38.7925C22.2851 39.5002 22.8846 40.0484 23.5923 40.0165H23.7087L33.0759 39.1604L36.1516 42.2361L28.912 42.8975C28.2043 42.9294 27.6567 43.5289 27.688 44.2367C27.7199 44.9444 28.32 45.4926 29.0278 45.4607H29.1454L38.5101 44.6046L48.7627 54.8572C42.7891 55.0506 28.4946 54.5262 19.9641 45.9951C10.5025 36.519 8.88488 18.0157 8.61579 12.8812C13.7484 13.149 32.243 14.7604 41.7178 24.2364C50.2476 32.7663 50.7708 47.0614 50.5799 53.0344L40.3248 42.7792ZM72.0332 42.1385C66.6985 47.485 59.1023 49.6383 53.1944 50.4869C53.1737 47.4074 52.9072 44.3349 52.3972 41.298H52.4097C52.7495 41.298 53.0755 41.1629 53.3158 40.9226L53.4916 40.7467L62.8563 41.6028H62.9739C63.6817 41.6347 64.2812 41.0865 64.3131 40.3788C64.345 39.671 63.7968 39.0716 63.0891 39.0396L55.8495 38.3782L58.9252 35.3025L68.3017 36.1717H68.4181C69.1259 36.2037 69.7254 35.6555 69.7573 34.9477C69.7892 34.24 69.241 33.6405 68.5333 33.6086L61.2937 32.9471L65.278 28.9616L74.6439 29.8177H74.7622C75.4699 29.849 76.0688 29.3008 76.1007 28.593C76.132 27.8853 75.5838 27.2858 74.8761 27.2545L67.6378 26.5918L74.7603 19.4687C75.0938 19.147 75.2271 18.6708 75.1101 18.2222C74.9931 17.7741 74.6427 17.4243 74.1946 17.3073C73.7466 17.1896 73.2703 17.3236 72.9487 17.6565L65.8256 24.7796L65.1629 17.5413C65.099 16.8361 64.4752 16.3167 63.7705 16.3811C63.0653 16.445 62.5459 17.0682 62.6097 17.7735L63.4658 27.1388L59.4803 31.1237L58.8176 23.8991C58.7537 23.1914 58.128 22.6695 57.4202 22.7333C56.7125 22.7978 56.1906 23.4236 56.2544 24.1313L57.1105 33.4985L54.0348 36.5741L53.3734 29.3346C53.3095 28.6293 52.6856 28.1099 51.9804 28.1744C51.2758 28.2389 50.7564 28.8627 50.8209 29.5674L51.5217 37.2312C50.5011 33.0998 48.7302 29.19 46.2978 25.697C47.3854 23.7571 48.727 21.9711 50.2889 20.3879C59.7531 10.9244 78.2502 9.3112 83.3859 9.04211C83.1175 14.1747 81.5017 32.6624 72.0332 42.136V42.1385Z" fill="#333333"/>
</g>
<path d="M69.3878 3.22533C69.1734 2.42514 69.6483 1.60263 70.4485 1.38822C71.2487 1.1738 72.0712 1.64868 72.2856 2.44888C72.5 3.24908 72.0251 4.07158 71.2249 4.28599C70.4247 4.50041 69.6022 4.02553 69.3878 3.22533Z" fill="#54C5B0"/>
<path d="M89.3878 2.22533C89.1734 1.42514 89.6483 0.60263 90.4485 0.388217C91.2487 0.173805 92.0712 0.648678 92.2856 1.44888C92.5 2.24908 92.0251 3.07158 91.2249 3.28599C90.4247 3.50041 89.6022 3.02553 89.3878 2.22533Z" fill="#54C5B0"/>
<path d="M19 4.50006C19 5.32849 18.3284 6.00006 17.5 6.00006C16.6716 6.00006 16 5.32849 16 4.50006C16 3.67163 16.6716 3.00006 17.5 3.00006C18.3284 3.00006 19 3.67163 19 4.50006Z" fill="#54C5B0"/>
<path d="M35 8.50006C35 9.32849 34.3284 10.0001 33.5 10.0001C32.6716 10.0001 32 9.32849 32 8.50006C32 7.67163 32.6716 7.00006 33.5 7.00006C34.3284 7.00006 35 7.67163 35 8.50006Z" fill="#54C5B0"/>
<path d="M53 7.50006C53 8.32849 52.3284 9.00006 51.5 9.00006C50.6716 9.00006 50 8.32849 50 7.50006C50 6.67163 50.6716 6.00006 51.5 6.00006C52.3284 6.00006 53 6.67163 53 7.50006Z" fill="#54C5B0"/>
<path d="M3 5.50006C3 6.32849 2.32843 7.00006 1.5 7.00006C0.671573 7.00006 0 6.32849 0 5.50006C0 4.67163 0.671573 4.00006 1.5 4.00006C2.32843 4.00006 3 4.67163 3 5.50006Z" fill="#54C5B0"/>
<defs>
<clipPath id="clip0">
<rect width="80" height="80" fill="white" transform="translate(6 3.00006)"/>
</clipPath>
</defs>
</svg>
