<svg width="293" height="332" viewBox="0 0 293 332" fill="none" xmlns="http://www.w3.org/2000/svg">
<path d="M293 231.627V99.3781C293.002 93.5412 291.481 87.8067 288.59 82.7509C285.699 77.6952 281.54 73.4963 276.531 70.5765L163.066 4.45216C158.055 1.53544 152.373 0 146.589 0C140.804 0 135.122 1.53544 130.112 4.45216L16.6461 70.5765C11.6201 73.4852 7.44258 77.6789 4.5343 82.7352C1.62602 87.7916 0.0896909 93.5319 0.0800781 99.3781L0.0800781 231.627C0.083129 237.464 1.60791 243.199 4.50138 248.254C7.39486 253.309 11.5553 257.508 16.565 260.428L130.031 326.553C135.041 329.469 140.723 331.005 146.508 331.005C152.292 331.005 157.974 329.469 162.984 326.553L276.45 260.428C281.472 257.516 285.645 253.321 288.551 248.265C291.456 243.209 292.99 237.471 293 231.627Z" fill="white"/>
<path d="M267.338 239.592L154.99 305.733C154.018 306.294 152.917 306.586 151.797 306.58C150.677 306.574 149.579 306.271 148.612 305.701C147.646 305.13 146.846 304.313 146.292 303.331C145.738 302.349 145.451 301.237 145.459 300.107V32.7966C145.458 31.6448 145.754 30.5126 146.318 29.5111C146.882 28.5096 147.694 27.6733 148.675 27.0844C149.656 26.4954 150.772 26.1741 151.913 26.1519C153.055 26.1297 154.182 26.4074 155.185 26.9578L267.175 91.3975C268.793 92.3338 270.136 93.6845 271.07 95.3129C272.003 96.9413 272.494 98.7896 272.492 100.671V230.368C272.505 232.226 272.036 234.054 271.132 235.673C270.228 237.291 268.92 238.642 267.338 239.592Z" fill="#333333"/>
<path d="M145.459 234.083C148.445 233.958 151.342 233.015 153.837 231.355C156.333 229.695 158.334 227.382 159.626 224.662L193.99 159.241V224.073C194.125 228.465 195.95 232.632 199.077 235.69C202.203 238.749 206.387 240.459 210.742 240.459C215.097 240.459 219.281 238.749 222.408 235.69C225.535 232.632 227.359 228.465 227.495 224.073V101.524C227.577 99.4864 227.245 97.4539 226.522 95.5503C225.798 93.6468 224.697 91.9123 223.286 90.4532C221.874 88.994 220.183 87.8409 218.314 87.0643C216.446 86.2878 214.44 85.9042 212.42 85.937C205.677 85.937 199.144 91.2034 195.886 96.9114L145.459 187.569" fill="white"/>
<path d="M145.475 234.085C142.5 233.948 139.617 232.999 137.134 231.341C134.651 229.682 132.66 227.374 131.373 224.664L97.0092 159.243V224.075C96.8737 228.467 95.0494 232.634 91.9225 235.692C88.7956 238.751 84.6117 240.461 80.2568 240.461C75.9018 240.461 71.7179 238.751 68.591 235.692C65.4641 232.634 63.6398 228.467 63.5043 224.075V101.525C63.4228 99.4939 63.752 97.4669 64.4718 95.5678C65.1916 93.6687 66.287 91.9373 67.6912 90.4791C69.0955 89.0209 70.7792 87.8664 72.6399 87.0858C74.5006 86.3053 76.4993 85.915 78.5142 85.9389C85.2573 85.9389 91.7897 91.2053 95.0478 96.9133L145.475 187.57" fill="#333333"/>
</svg>
