<svg width="214" height="57" viewBox="0 0 214 57" fill="none" xmlns="http://www.w3.org/2000/svg">
<g clip-path="url(#clip0)">
<path d="M50.4428 39.8864V17.1123C50.4431 16.1072 50.1812 15.1197 49.6833 14.249C49.1855 13.3784 48.4693 12.6553 47.6067 12.1525L28.0672 0.765471C27.2044 0.263192 26.2258 -0.0012207 25.2298 -0.0012207C24.2337 -0.0012207 23.2551 0.263192 22.3923 0.765471L2.85277 12.1525C1.98727 12.6534 1.26787 13.3756 0.767046 14.2463C0.266221 15.1171 0.00165538 16.1056 0 17.1123L0 39.8864C0.000525388 40.8917 0.263102 41.8792 0.761378 42.7498C1.25965 43.6203 1.9761 44.3434 2.83882 44.8463L22.3784 56.2333C23.2411 56.7356 24.2197 57 25.2158 57C26.2119 57 27.1904 56.7356 28.0532 56.2333L47.5928 44.8463C48.4576 44.3448 49.1762 43.6224 49.6765 42.7517C50.1768 41.8811 50.4411 40.8928 50.4428 39.8864Z" fill="white"/>
<path d="M46.0244 41.4304L26.6775 52.8203C26.5101 52.9168 26.3204 52.9671 26.1276 52.9661C25.9348 52.9652 25.7456 52.9129 25.5792 52.8147C25.4128 52.7164 25.2749 52.5757 25.1796 52.4065C25.0843 52.2374 25.0348 52.046 25.0362 51.8514V5.81879C25.036 5.62045 25.087 5.42547 25.1841 5.25301C25.2811 5.08055 25.421 4.93653 25.59 4.83511C25.7589 4.73369 25.9511 4.67835 26.1476 4.67453C26.3442 4.67071 26.5383 4.71853 26.711 4.81331L45.9965 15.9103C46.275 16.0715 46.5063 16.3041 46.6671 16.5845C46.8279 16.8649 46.9124 17.1832 46.9121 17.5072V39.8419C46.9143 40.1618 46.8336 40.4767 46.6779 40.7554C46.5221 41.0341 46.2969 41.2668 46.0244 41.4304Z" fill="#333333"/>
<path d="M76.5901 13.5811V28.8154H73.6369V18.9352L69.3856 26.0074H69.0423L64.791 18.9662V28.8239H61.8154V13.5811H64.8859L69.2265 20.7856L73.542 13.5811H76.5901Z" fill="white"/>
<path d="M82.3711 25.9426H88.7354V28.8154H79.3955V13.5811H88.6266V16.4539H82.3711V19.6956H88.0878V22.5318H82.3711V25.9426Z" fill="white"/>
<path d="M96.8249 13.5811C97.794 13.5575 98.7571 13.7404 99.6513 14.118C100.545 14.4956 101.351 15.0593 102.014 15.7724C102.699 16.4926 103.235 17.3426 103.592 18.2732C103.949 19.2038 104.119 20.1966 104.094 21.1941C104.119 22.1912 103.948 23.1834 103.591 24.1136C103.234 25.0437 102.698 25.8932 102.014 26.613C101.351 27.3271 100.546 27.8919 99.652 28.2704C98.7578 28.649 97.7944 28.8328 96.8249 28.8099H90.8291V13.5811H96.8249ZM96.8249 25.9427C97.4193 25.9649 98.0114 25.859 98.5621 25.6322C99.1127 25.4054 99.6091 25.0629 100.018 24.6274C100.837 23.7486 101.246 22.6061 101.246 21.1997C101.246 19.7934 100.837 18.6499 100.018 17.7692C99.6091 17.3338 99.1127 16.9912 98.5621 16.7644C98.0114 16.5376 97.4193 16.4318 96.8249 16.4539H93.8047V25.9427H96.8249Z" fill="white"/>
<path d="M115.375 28.8154L114.471 26.075H108.45L107.546 28.8154H104.33L109.617 13.5811H113.304L118.608 28.8154H115.375ZM109.402 23.2669H113.542L111.47 17.0397L109.402 23.2669Z" fill="white"/>
<path d="M128.361 28.8155L125.332 23.5261H123.066V28.8155H120.079V13.5811H126.12C126.779 13.5781 127.432 13.7066 128.041 13.9591C128.651 14.2116 129.205 14.5831 129.672 15.0524C130.139 15.5216 130.509 16.0794 130.762 16.6935C131.015 17.3077 131.144 17.9661 131.144 18.6311C131.15 19.5653 130.876 20.4794 130.357 21.2532C129.837 22.0486 129.105 22.6786 128.244 23.0698L131.593 28.8155H128.361ZM123.057 16.3891V20.8955H126.128C126.401 20.8961 126.671 20.8369 126.919 20.7222C127.167 20.6074 127.388 20.4398 127.566 20.2308C127.966 19.7975 128.183 19.2236 128.171 18.6311C128.184 18.0411 127.966 17.4697 127.566 17.0397C127.385 16.8335 127.163 16.6687 126.914 16.5564C126.665 16.4442 126.395 16.3871 126.122 16.3891H123.057Z" fill="white"/>
<path d="M147.41 20.9152C148.122 21.2164 148.733 21.7192 149.168 22.3629C149.608 23.0127 149.838 23.784 149.827 24.571C149.829 25.1291 149.722 25.6822 149.512 26.1983C149.301 26.7145 148.992 27.1834 148.601 27.5781C148.209 27.9727 147.745 28.2853 147.233 28.4976C146.722 28.71 146.173 28.818 145.62 28.8154H139.041V13.5811H145.123C146.198 13.5848 147.227 14.0171 147.987 14.7838C148.747 15.5504 149.176 16.5892 149.179 17.6734C149.204 18.325 149.052 18.9709 148.74 19.5421C148.428 20.1132 147.968 20.5878 147.41 20.9152ZM145.123 15.0175H140.551V20.3265H145.123C145.46 20.3316 145.794 20.2655 146.104 20.1326C146.414 19.9997 146.694 19.8029 146.924 19.5548C147.402 19.0492 147.67 18.3768 147.67 17.6776C147.67 16.9784 147.402 16.3061 146.924 15.8004C146.695 15.5499 146.416 15.3507 146.106 15.2158C145.796 15.0809 145.461 15.0133 145.123 15.0175ZM145.62 27.379C145.977 27.3845 146.332 27.3146 146.66 27.174C146.989 27.0333 147.285 26.825 147.53 26.5622C148.035 26.027 148.317 25.316 148.317 24.5766C148.317 23.8373 148.035 23.1263 147.53 22.591C147.286 22.3258 146.991 22.1151 146.662 21.9724C146.333 21.8298 145.978 21.7584 145.62 21.7629H140.551V27.379H145.62Z" fill="white"/>
<path d="M153.925 27.379H161.258V28.8154H152.409V13.5811H161.146V15.0175H153.925V20.4138H160.624V21.8502H153.925V27.379Z" fill="white"/>
<path d="M174.115 28.8154L172.719 25.0723H165.551L164.155 28.8154H162.559L168.362 13.5811H169.914L175.717 28.8154H174.115ZM166.087 23.6359H172.172L169.129 15.4681L166.087 23.6359Z" fill="white"/>
<path d="M186.671 27.6015C185.634 28.5873 184.282 29.0802 182.615 29.0802C180.947 29.0802 179.595 28.5873 178.559 27.6015C177.524 26.6139 177.007 25.2929 177.007 23.6387V13.5811H178.517V23.6359C178.517 24.8545 178.876 25.8196 179.594 26.5312C180.313 27.2429 181.32 27.5996 182.615 27.6015C183.917 27.6015 184.924 27.2457 185.635 26.5341C186.346 25.8224 186.705 24.8573 186.712 23.6387V13.5811H188.223V23.6359C188.223 25.2901 187.705 26.612 186.671 27.6015Z" fill="white"/>
<path d="M200.948 13.5811V15.0175H196.312V28.8182H194.801V15.0175H190.165V13.5811H200.948Z" fill="white"/>
<path d="M214.001 13.5811L208.543 22.5685V28.8154H207.033V22.5318L201.596 13.5811H203.301L207.809 21.0447L212.295 13.5811H214.001Z" fill="white"/>
<path d="M66.9935 43.4357V37.1239L62.7115 43.4357H62.0527V35.6819H62.8064V41.9964L67.0856 35.6819H67.7443V43.4357H66.9935Z" fill="white"/>
<path d="M73.2791 37.8987H74.0021V43.4359H73.2791V41.0222H70.1165V43.4359H69.3936V37.8987H70.1165V40.3124H73.2791V37.8987Z" fill="white"/>
<path d="M79.4902 37.8987V38.6056H77.5363V43.4359H76.8133V38.6056H74.8594V37.8987H79.4902Z" fill="white"/>
<path d="M82.6829 37.7662C83.0547 37.7532 83.4247 37.8244 83.7657 37.9745C84.1067 38.1246 84.4101 38.3499 84.6536 38.6337C85.1502 39.2 85.4181 39.9337 85.4044 40.6897C85.4044 40.7714 85.4044 40.8841 85.3849 41.0333H80.5642C80.6172 41.5544 80.872 42.0332 81.2732 42.3655C81.6918 42.7015 82.2153 42.8762 82.7499 42.8584C83.1262 42.869 83.4987 42.7796 83.8301 42.5993C84.118 42.4419 84.3561 42.2056 84.5168 41.9177L85.1532 42.2951C84.9109 42.6875 84.57 43.0082 84.1651 43.2246C83.7259 43.4586 83.2353 43.5768 82.7387 43.5682C82.3506 43.5835 81.9635 43.5187 81.6011 43.3778C81.2388 43.2368 80.9087 43.0227 80.6312 42.7486C80.3621 42.476 80.1512 42.1507 80.0115 41.7927C79.8718 41.4348 79.8063 41.0517 79.8189 40.6672C79.8081 40.2856 79.8734 39.9056 80.0111 39.55C80.1487 39.1944 80.3558 38.8703 80.62 38.5971C80.8877 38.3214 81.2094 38.1052 81.5646 37.9621C81.9198 37.819 82.3007 37.7523 82.6829 37.7662ZM82.6829 38.4731C82.1633 38.4544 81.6561 38.6348 81.263 38.9781C80.87 39.3214 80.6203 39.8021 80.5642 40.3236H84.6591C84.616 39.7997 84.3764 39.3122 83.9892 38.9604C83.6288 38.64 83.1632 38.4663 82.6829 38.4731Z" fill="white"/>
<path d="M89.4997 37.7663C89.8734 37.7609 90.2441 37.8331 90.5889 37.9785C90.9337 38.1238 91.2451 38.3392 91.5039 38.6112C92.0338 39.1638 92.33 39.9026 92.33 40.6715C92.33 41.4403 92.0338 42.1791 91.5039 42.7317C91.245 43.0036 90.9335 43.2189 90.5888 43.3642C90.244 43.5096 89.8733 43.5819 89.4997 43.5767C89.0554 43.5951 88.6145 43.4914 88.2242 43.2766C87.8338 43.0618 87.5086 42.744 87.2834 42.3571V45.658H86.5576V37.8986H87.2834V38.983C87.5092 38.5969 87.8346 38.2798 88.2249 38.0655C88.6152 37.8513 89.0558 37.7478 89.4997 37.7663ZM87.9086 42.2219C88.3177 42.6292 88.8692 42.8576 89.4439 42.8576C90.0186 42.8576 90.5701 42.6292 90.9791 42.2219C91.2844 41.9152 91.4925 41.524 91.577 41.0978C91.6615 40.6716 91.6187 40.2296 91.4539 39.828C91.2892 39.4264 91.0099 39.0832 90.6515 38.842C90.2932 38.6008 89.8719 38.4724 89.4411 38.4732C89.1556 38.4676 88.8721 38.5212 88.608 38.6307C88.3439 38.7402 88.1049 38.9032 87.9059 39.1097C87.5088 39.5259 87.2869 40.0811 87.2869 40.6588C87.2869 41.2365 87.5088 41.7917 87.9059 42.2078L87.9086 42.2219Z" fill="white"/>
<path d="M97.4191 37.8987H98.142V43.4359H97.4191V41.0222H94.262V43.4359H93.5391V37.8987H94.262V40.3124H97.4191V37.8987Z" fill="white"/>
<path d="M102.22 37.7661C102.592 37.7545 102.961 37.8263 103.302 37.9763C103.643 38.1264 103.946 38.3508 104.191 38.6336C104.686 39.2006 104.954 39.9338 104.942 40.6896C104.94 40.8045 104.933 40.9192 104.919 41.0332H100.101C100.127 41.2914 100.203 41.542 100.324 41.7706C100.446 41.9992 100.611 42.2013 100.81 42.3654C101.229 42.7014 101.752 42.8761 102.287 42.8583C102.663 42.8689 103.036 42.7795 103.367 42.5992C103.655 42.4417 103.893 42.2055 104.054 41.9176L104.69 42.295C104.447 42.6867 104.106 43.0072 103.702 43.2244C103.263 43.4583 102.772 43.5764 102.276 43.568C101.888 43.5837 101.5 43.5191 101.138 43.3781C100.776 43.2372 100.446 43.0229 100.168 42.7484C99.6495 42.1839 99.3613 41.4425 99.3613 40.6727C99.3613 39.9029 99.6495 39.1615 100.168 38.5969C100.435 38.3227 100.755 38.1073 101.108 37.9643C101.461 37.8213 101.84 37.7538 102.22 37.7661ZM102.22 38.473C101.7 38.4543 101.193 38.6347 100.8 38.978C100.407 39.3213 100.157 39.802 100.101 40.3234H104.196C104.153 39.7996 103.913 39.312 103.526 38.9603C103.165 38.6415 102.7 38.468 102.22 38.473Z" fill="white"/>
<path d="M109.827 37.8987V38.6056H107.873V43.4359H107.147V38.6056H105.193V37.8987H109.827Z" fill="white"/>
<path d="M110.485 40.3687V39.6589H114.446V40.3687H110.485Z" fill="white"/>
<path d="M121.461 37.8987V43.4359H120.735V39.0168L118.815 42.1628H118.725L116.805 39.0168V43.4359H116.082V37.8987H116.919L118.773 40.932L120.629 37.8987H121.461Z" fill="white"/>
<path d="M127.716 37.8985H128.439V43.4357H127.716V42.3485C127.489 42.7377 127.162 43.0571 126.768 43.272C126.374 43.4869 125.93 43.5893 125.483 43.568C125.11 43.5732 124.74 43.5008 124.395 43.3555C124.051 43.2101 123.74 42.9949 123.482 42.7231C122.95 42.1715 122.652 41.4324 122.652 40.6628C122.652 39.8933 122.95 39.1541 123.482 38.6026C123.74 38.3307 124.051 38.1153 124.395 37.9699C124.74 37.8246 125.11 37.7523 125.483 37.7576C125.93 37.7364 126.374 37.8385 126.767 38.0529C127.161 38.2673 127.489 38.5858 127.716 38.9743V37.8985ZM124.018 42.2218C124.427 42.629 124.978 42.8574 125.553 42.8574C126.128 42.8574 126.679 42.629 127.088 42.2218C127.393 41.9151 127.602 41.5238 127.686 41.0976C127.771 40.6714 127.728 40.2294 127.563 39.8278C127.398 39.4262 127.119 39.0831 126.761 38.8419C126.402 38.6006 125.981 38.4723 125.55 38.473C125.265 38.4671 124.981 38.5205 124.717 38.63C124.453 38.7395 124.214 38.9028 124.015 39.1095C123.618 39.5257 123.396 40.0809 123.396 40.6586C123.396 41.2363 123.618 41.7915 124.015 42.2077L124.018 42.2218Z" fill="white"/>
<path d="M133.489 37.8987V38.6056H130.698V43.4359H129.975V37.8987H133.489Z" fill="white"/>
<path d="M138.866 37.8986H139.591V43.4358H138.866V42.3486C138.641 42.7359 138.316 43.054 137.925 43.2689C137.535 43.4838 137.094 43.5872 136.649 43.5682C136.276 43.5737 135.906 43.5015 135.561 43.3561C135.217 43.2107 134.906 42.9953 134.648 42.7232C134.116 42.1717 133.818 41.4325 133.818 40.663C133.818 39.8934 134.116 39.1543 134.648 38.6027C134.906 38.3305 135.217 38.115 135.561 37.9696C135.905 37.8242 136.276 37.7521 136.649 37.7578C137.093 37.7391 137.534 37.8424 137.924 38.0567C138.315 38.2709 138.64 38.5882 138.866 38.9745V37.8986ZM135.167 42.2219C135.47 42.5298 135.857 42.7396 136.278 42.8246C136.7 42.9096 137.137 42.8659 137.534 42.6991C137.931 42.5322 138.27 42.2498 138.507 41.8879C138.744 41.526 138.869 41.101 138.866 40.6672C138.863 40.3093 138.773 39.9576 138.604 39.643C138.434 39.3285 138.191 39.0607 137.895 38.8633C137.599 38.6659 137.26 38.545 136.907 38.5111C136.554 38.4773 136.198 38.5316 135.87 38.6692C135.543 38.8069 135.254 39.0236 135.029 39.3004C134.804 39.5772 134.65 39.9056 134.581 40.2565C134.511 40.6075 134.528 40.9703 134.631 41.3131C134.733 41.6558 134.917 41.9679 135.167 42.2219Z" fill="white"/>
<path d="M143.96 40.5882C144.243 40.6709 144.491 40.8465 144.664 41.0874C144.837 41.3282 144.925 41.6204 144.915 41.9176C144.916 42.14 144.87 42.3601 144.777 42.5621C144.685 42.7641 144.55 42.9432 144.381 43.0864C143.952 43.4324 143.411 43.6042 142.863 43.5681C141.758 43.5681 141.033 43.1249 140.688 42.2387L141.303 41.8725C141.529 42.5316 142.051 42.8583 142.863 42.8583C143.212 42.8804 143.558 42.781 143.843 42.5767C143.953 42.495 144.041 42.3879 144.102 42.2644C144.162 42.1409 144.192 42.0045 144.189 41.8669C144.193 41.7473 144.169 41.6284 144.121 41.5191C144.073 41.4098 144 41.313 143.91 41.236C143.691 41.0654 143.418 40.9794 143.142 40.9938H142.341V40.284H142.919C143.187 40.2994 143.451 40.2153 143.661 40.0475C143.753 39.965 143.825 39.8632 143.874 39.7493C143.922 39.6354 143.945 39.5122 143.94 39.3884C143.943 39.261 143.915 39.1349 143.86 39.0204C143.804 38.9059 143.723 38.8061 143.622 38.7293C143.376 38.5436 143.072 38.4509 142.765 38.4674C142.079 38.4674 141.621 38.7491 141.395 39.3124L140.789 38.9575C141.157 38.1689 141.813 37.7746 142.765 37.7746C143.271 37.7454 143.769 37.9093 144.161 38.2336C144.324 38.3712 144.455 38.5437 144.544 38.7385C144.632 38.9334 144.677 39.1458 144.675 39.3602C144.686 39.6127 144.624 39.8629 144.497 40.0808C144.37 40.2987 144.184 40.4749 143.96 40.5882Z" fill="white"/>
<path d="M150.006 37.8987H150.62V43.4359H149.897V39.1717L146.626 43.4359H146.012V37.8987H146.735V42.1628L150.006 37.8987Z" fill="white"/>
<path d="M156.037 37.8987H156.76V43.4359H156.037V41.0222H152.88V43.4359H152.157V37.8987H152.88V40.3124H156.037V37.8987Z" fill="white"/>
<path d="M165.481 43.4359H164.515L161.772 40.7659V43.4359H161.062V37.8987H161.785V40.3462L164.398 37.8987H165.386L162.539 40.5574L165.481 43.4359Z" fill="white"/>
<path d="M170.525 42.7316C169.976 43.2683 169.242 43.5684 168.478 43.5684C167.713 43.5684 166.979 43.2683 166.43 42.7316C165.892 42.1818 165.59 41.44 165.59 40.6671C165.59 39.8942 165.892 39.1525 166.43 38.6027C166.979 38.066 167.713 37.7659 168.478 37.7659C169.242 37.7659 169.976 38.066 170.525 38.6027C171.063 39.1525 171.365 39.8942 171.365 40.6671C171.365 41.44 171.063 42.1818 170.525 42.7316ZM166.941 42.2218C167.35 42.6291 167.901 42.8575 168.476 42.8575C169.051 42.8575 169.602 42.6291 170.011 42.2218C170.408 41.8057 170.63 41.2505 170.63 40.6728C170.63 40.0951 170.408 39.5399 170.011 39.1237C169.602 38.7164 169.051 38.488 168.476 38.488C167.901 38.488 167.35 38.7164 166.941 39.1237C166.544 39.5399 166.322 40.0951 166.322 40.6728C166.322 41.2505 166.544 41.8057 166.941 42.2218Z" fill="white"/>
<path d="M175.128 43.568C174.688 43.5653 174.254 43.4605 173.86 43.2617C173.466 43.0629 173.122 42.7754 172.856 42.4214C172.589 42.0674 172.407 41.6564 172.323 41.2201C172.239 40.7838 172.256 40.3339 172.371 39.905C172.487 39.4762 172.699 39.0799 172.991 38.7467C173.282 38.4136 173.646 38.1525 174.053 37.9837C174.461 37.8148 174.901 37.7426 175.341 37.7728C175.78 37.8029 176.207 37.9346 176.588 38.1575C177.005 38.4013 177.335 38.772 177.531 39.2166L176.94 39.5602C176.794 39.226 176.545 38.9484 176.231 38.7687C175.943 38.5975 175.619 38.4955 175.286 38.4706C174.953 38.4457 174.618 38.4986 174.308 38.6252C173.998 38.7518 173.721 38.9487 173.499 39.2006C173.277 39.4526 173.115 39.7528 173.026 40.078C172.937 40.4032 172.924 40.7446 172.987 41.0759C173.05 41.4072 173.188 41.7193 173.39 41.9882C173.592 42.257 173.852 42.4754 174.151 42.6262C174.45 42.7771 174.78 42.8565 175.114 42.8583C175.492 42.8651 175.865 42.7677 176.192 42.5766C176.519 42.3855 176.788 42.108 176.97 41.7739L177.573 42.1288C177.349 42.5696 177.001 42.9347 176.574 43.1793C176.135 43.4374 175.636 43.5717 175.128 43.568Z" fill="white"/>
<path d="M184.007 37.8987V43.4359H183.284V39.0168L181.361 42.1628H181.274L179.354 39.0168V43.4359H178.628V37.8987H179.465L181.322 40.932L183.175 37.8987H184.007Z" fill="white"/>
<path d="M188.08 37.7662C188.451 37.7533 188.821 37.8245 189.162 37.9746C189.502 38.1247 189.805 38.35 190.048 38.6337C190.545 39.1997 190.814 39.9334 190.802 40.6898C190.802 40.7714 190.802 40.8841 190.779 41.0334H185.961C185.987 41.2916 186.063 41.5422 186.184 41.7708C186.306 41.9994 186.471 42.2015 186.67 42.3656C187.087 42.7025 187.61 42.8773 188.144 42.8584C188.522 42.8694 188.895 42.78 189.227 42.5993C189.514 42.441 189.751 42.2049 189.911 41.9177L190.548 42.2952C190.306 42.6874 189.966 43.0081 189.562 43.2246C189.122 43.4587 188.631 43.5768 188.133 43.5682C187.745 43.5835 187.358 43.5187 186.996 43.3778C186.633 43.2369 186.303 43.0228 186.026 42.7486C185.508 42.1835 185.221 41.4423 185.221 40.6729C185.221 39.9034 185.508 39.1622 186.026 38.5971C186.292 38.3223 186.612 38.1064 186.966 37.9634C187.32 37.8203 187.699 37.7532 188.08 37.7662ZM188.08 38.4732C187.561 38.4545 187.053 38.6349 186.66 38.9782C186.267 39.3215 186.018 39.8022 185.961 40.3236H190.054C190.01 39.8004 189.772 39.3133 189.386 38.9604C189.025 38.6416 188.56 38.4682 188.08 38.4732Z" fill="white"/>
<path d="M195.675 37.8987V38.6056H193.721V43.4359H192.995V38.6056H191.041V37.8987H195.675Z" fill="white"/>
<path d="M200.557 37.8987H201.171V43.4359H200.448V39.1717L197.177 43.4359H196.562V37.8987H197.288V42.1628L200.557 37.8987Z" fill="white"/>
<path d="M207.143 43.4359H206.177L203.433 40.7659V43.4359H202.71V37.8987H203.433V40.3462L206.046 37.8987H207.034L204.203 40.5574L207.143 43.4359Z" fill="white"/>
<path d="M212.124 37.8987H212.741V43.4359H212.015V39.1717L208.744 43.4359H208.13V37.8987H208.856V42.1628L212.124 37.8987Z" fill="white"/>
<path d="M25.0361 40.3094C25.5504 40.2878 26.0492 40.1254 26.4789 39.8397C26.9087 39.5539 27.2533 39.1554 27.4758 38.6871L33.3935 27.4212V38.5857C33.4168 39.342 33.731 40.0595 34.2694 40.5862C34.8079 41.1129 35.5284 41.4074 36.2784 41.4074C37.0283 41.4074 37.7488 41.1129 38.2873 40.5862C38.8257 40.0595 39.1399 39.342 39.1632 38.5857V17.4818C39.1773 17.131 39.1203 16.781 38.9957 16.4532C38.871 16.1254 38.6814 15.8267 38.4384 15.5754C38.1954 15.3241 37.9041 15.1256 37.5823 14.9918C37.2606 14.8581 36.9152 14.792 36.5673 14.7977C35.4061 14.7977 34.2811 15.7046 33.7201 16.6876L25.0361 32.2993" fill="white"/>
<path d="M25.0389 40.3097C24.5266 40.2862 24.0302 40.1228 23.6025 39.8372C23.1749 39.5515 22.832 39.1541 22.6104 38.6874L16.6927 27.4215V38.586C16.6694 39.3424 16.3553 40.0599 15.8168 40.5865C15.2783 41.1132 14.5578 41.4077 13.8079 41.4077C13.0579 41.4077 12.3374 41.1132 11.7989 40.5865C11.2605 40.0599 10.9463 39.3424 10.923 38.586V17.4821C10.909 17.1323 10.9656 16.7832 11.0896 16.4562C11.2135 16.1292 11.4022 15.831 11.644 15.5799C11.8858 15.3288 12.1758 15.13 12.4962 14.9955C12.8166 14.8611 13.1608 14.7939 13.5078 14.798C14.669 14.798 15.7939 15.7049 16.355 16.6879L25.0389 32.2997" fill="#262626"/>
<path d="M25.0389 40.3097C24.5266 40.2862 24.0302 40.1228 23.6025 39.8372C23.1749 39.5515 22.832 39.1541 22.6104 38.6874L16.6927 27.4215V38.586C16.6694 39.3424 16.3553 40.0599 15.8168 40.5865C15.2783 41.1132 14.5578 41.4077 13.8079 41.4077C13.0579 41.4077 12.3374 41.1132 11.7989 40.5865C11.2605 40.0599 10.9463 39.3424 10.923 38.586V17.4821C10.909 17.1323 10.9656 16.7832 11.0896 16.4562C11.2135 16.1292 11.4022 15.831 11.644 15.5799C11.8858 15.3288 12.1758 15.13 12.4962 14.9955C12.8166 14.8611 13.1608 14.7939 13.5078 14.798C14.669 14.798 15.7939 15.7049 16.355 16.6879L25.0389 32.2997" fill="#333333"/>
</g>
<defs>
<clipPath id="clip0">
<rect width="214" height="57" fill="white"/>
</clipPath>
</defs>
</svg>
