<svg width="18" height="18" viewBox="0 0 18 18" fill="none" xmlns="http://www.w3.org/2000/svg">
<path d="M17.8438 17.082L13.4696 12.7078C14.6429 11.3588 15.3534 9.59867 15.3534 7.67494C15.3534 3.44035 11.909 0 7.67842 0C3.44383 0 0.003479 3.44435 0.003479 7.67494C0.003479 11.9055 3.44783 15.3499 7.67842 15.3499C9.60215 15.3499 11.3622 14.6395 12.7112 13.4661L17.0855 17.8404C17.1893 17.9441 17.329 18 17.4647 18C17.6004 18 17.7401 17.9481 17.8438 17.8404C18.0514 17.6328 18.0514 17.2896 17.8438 17.082ZM1.07709 7.67494C1.07709 4.03503 4.03851 1.07761 7.67443 1.07761C11.3143 1.07761 14.2718 4.03902 14.2718 7.67494C14.2718 11.3109 11.3143 14.2763 7.67443 14.2763C4.03851 14.2763 1.07709 11.3149 1.07709 7.67494Z" fill="#FDBE66"/>
</svg>
