<svg width="63" height="63" viewBox="0 0 63 63" fill="none" xmlns="http://www.w3.org/2000/svg">
<path d="M20.6689 43.1248C23.2635 46.783 25.8539 50.0549 27.5706 52.1622C27.8205 52.4688 28.0547 52.7533 28.2815 53.0273H23.1008C22.5209 53.0273 22.0509 53.4973 22.0509 54.0773C22.0509 54.6572 22.5209 55.1272 23.1008 55.1272H39.9007C40.4806 55.1272 40.9507 54.6572 40.9507 54.0773C40.9507 53.4973 40.4806 53.0273 39.9007 53.0273H34.7201C34.9468 52.7533 35.181 52.4687 35.432 52.1622C37.1477 50.0621 39.7371 46.783 42.3326 43.1248C44.9079 39.5681 47.2259 35.8322 49.2689 31.9455C51.413 27.7349 52.5009 24.2395 52.5009 21.5557C52.508 15.9791 50.2952 10.629 46.351 6.68656C46.0875 6.4134 45.6972 6.30364 45.3301 6.39949C44.9629 6.49535 44.6759 6.7818 44.5796 7.14885C44.4833 7.5159 44.5924 7.90633 44.8652 8.17014C48.4154 11.7193 50.4071 16.5355 50.4008 21.5556C50.4008 23.9056 49.3908 27.0807 47.3979 30.992C45.4009 34.7886 43.1355 38.438 40.6191 41.9121C38.0592 45.523 35.5003 48.758 33.8046 50.8371C33.2408 51.528 32.7336 52.139 32.3009 52.6557C32.099 52.8863 31.8074 53.0184 31.5009 53.0184C31.1944 53.0184 30.9028 52.8862 30.7008 52.6557C30.2682 52.1391 29.7611 51.528 29.1972 50.8371C27.5015 48.7592 24.9426 45.524 22.3827 41.9121C19.8663 38.438 17.6008 34.7886 15.6039 30.992C13.6089 27.0807 12.6009 23.9056 12.6009 21.5556C12.6003 13.9502 17.1486 7.08191 24.151 4.11401C28.8561 2.14107 34.1565 2.14107 38.8616 4.11401C39.2071 4.26044 39.6044 4.21159 39.904 3.98555C40.2037 3.75963 40.3599 3.39098 40.314 3.01852C40.2681 2.64606 40.0271 2.32638 39.6816 2.17995C28.989 -2.32998 16.6648 2.67977 12.1516 13.3709C11.0571 15.9605 10.4957 18.7442 10.501 21.5556C10.501 24.2394 11.5889 27.7349 13.733 31.9506C15.7758 35.8356 18.0939 39.5699 20.6689 43.1248Z" fill="#333333"/>
<path d="M31.5003 12.0773C32.0802 12.0773 32.5503 11.6072 32.5503 11.0273C32.5503 10.4474 32.0802 9.97736 31.5003 9.97736C26.491 9.97723 22.1792 13.5158 21.2019 18.4289C20.2245 23.3419 22.8539 28.2611 27.4818 30.1782C32.1098 32.0952 37.4474 30.4761 40.2305 26.311C43.0136 22.146 42.4669 16.595 38.9249 13.0528C38.6612 12.7799 38.2709 12.6704 37.9037 12.7665C37.5366 12.8626 37.2499 13.1493 37.1538 13.5163C37.0577 13.8835 37.1672 14.2738 37.4402 14.5375C40.2739 17.3711 40.7114 21.8118 38.4851 25.1439C36.2588 28.476 31.9887 29.7715 28.2863 28.2381C24.5839 26.7047 22.4803 22.7694 23.2619 18.8389C24.0435 14.9084 27.4929 12.0774 31.5003 12.0773Z" fill="#54C5B0"/>
<path d="M62.6047 57.827L56.1472 46.277C55.5634 45.2507 54.4708 44.62 53.2902 44.6274H45.8068C45.2269 44.6274 44.7568 45.0974 44.7568 45.6774C44.7568 46.2573 45.2269 46.7273 45.8068 46.7273H53.2902C53.7105 46.7192 54.1027 46.9383 54.316 47.3006L60.7715 58.8507C60.9473 59.1512 60.9436 59.5239 60.762 59.8209C60.5475 60.1753 60.1597 60.3875 59.7456 60.3774H3.25542C2.84174 60.3873 2.45438 60.1749 2.24004 59.8209C2.05842 59.5239 2.05485 59.1512 2.23056 58.8507L8.686 47.3006C8.89899 46.9385 9.29077 46.7193 9.71073 46.7273H17.1941C17.774 46.7273 18.2441 46.2573 18.2441 45.6774C18.2441 45.0974 17.774 44.6274 17.1941 44.6274H9.71086C8.5296 44.6196 7.4362 45.2504 6.85173 46.277L0.395186 57.827C-0.143146 58.778 -0.130718 59.9444 0.427794 60.8837C1.01621 61.8838 2.09521 62.492 3.25542 62.4776H59.7456C60.9055 62.4916 61.9841 61.8835 62.5723 60.8837C63.1308 59.9443 63.1432 58.778 62.6047 57.827Z" fill="#333333"/>
<path d="M51.451 49.8773H47.251C47.0437 49.8777 46.841 49.939 46.6683 50.0538L43.5183 52.1539C43.0358 52.4757 42.9056 53.1278 43.2274 53.6102C43.5493 54.0927 44.2013 54.2229 44.6838 53.9011L47.566 51.9775H51.451C52.0309 51.9775 52.501 51.5074 52.501 50.9276C52.501 50.3474 52.0309 49.8773 51.451 49.8773Z" fill="#333333"/>
<path d="M45.1504 57.2274C45.1504 57.8073 45.6204 58.2773 46.2004 58.2773H54.6004C55.1804 58.2773 55.6504 57.8073 55.6504 57.2274C55.6504 56.6474 55.1804 56.1774 54.6004 56.1774H46.2004C45.6204 56.1774 45.1504 56.6474 45.1504 57.2274Z" fill="#54C5B0"/>
<path d="M18.9 54.0773C19.3629 54.0779 19.7715 53.7752 19.906 53.3323C20.0405 52.8893 19.869 52.4105 19.4838 52.1537L16.3338 50.0537C16.1608 49.9388 15.9576 49.8774 15.7499 49.8772H11.55C10.97 49.8772 10.5 50.3474 10.5 50.9272C10.5 51.5071 10.9702 51.9772 11.55 51.9772H15.4349L18.3204 53.9008C18.492 54.0154 18.6937 54.0768 18.9 54.0773Z" fill="#54C5B0"/>
<path d="M8.40055 56.1774C7.82063 56.1774 7.35059 56.6474 7.35059 57.2274C7.35059 57.8073 7.82063 58.2773 8.40055 58.2773H16.8006C17.3805 58.2773 17.8506 57.8073 17.8506 57.2274C17.8506 56.6474 17.3805 56.1774 16.8006 56.1774H8.40055Z" fill="#333333"/>
</svg>
