<svg width="34" height="35" viewBox="0 0 34 35" fill="none" xmlns="http://www.w3.org/2000/svg">
<g clip-path="url(#clip0)">
<path d="M17.0034 0.0141602C9.89073 0.0214516 4.12767 5.78749 4.12402 12.9001C4.12402 19.8204 16.0024 33.23 16.5062 33.7934C16.7504 34.0662 17.1695 34.0893 17.4423 33.8451C17.4604 33.8289 17.4776 33.8117 17.494 33.7934C17.9977 33.2234 29.8762 19.8204 29.8762 12.9001C29.8724 5.79006 24.1133 0.0250973 17.0034 0.0141602ZM17.0034 32.3418C14.7364 29.6903 5.44974 18.5609 5.44974 12.8935C5.44974 6.51258 10.6224 1.33988 17.0034 1.33988C23.3843 1.33988 28.557 6.51258 28.557 12.8935C28.557 18.5609 19.2703 29.7036 17.0034 32.3418Z" fill="#333333"/>
<circle cx="17" cy="13" r="7" fill="#54C5B0"/>
</g>
<defs>
<clipPath id="clip0">
<rect width="34" height="34" fill="white" transform="translate(0 0.0141602)"/>
</clipPath>
</defs>
</svg>
