<svg width="17" height="17" viewBox="0 0 17 17" fill="none" xmlns="http://www.w3.org/2000/svg">
<g clip-path="url(#clip0)">
<path d="M14.0601 2.00173H11.7902V0.526753C11.7902 0.22986 11.5508 0 11.2539 0C11.2251 0 11.2059 0.00961685 11.1965 0.0192117C11.1869 0.00961685 11.1677 0 11.1581 0H5.82343H5.78522H5.7468C5.44993 0 5.22007 0.22986 5.22007 0.526753V2.00175H2.94066C2.28928 2.00175 1.78174 2.5093 1.78174 3.16067V4.00351V5.05699H2.7874V15.8507C2.7874 16.5021 3.28535 17 3.93672 17H13.064C13.7154 17 14.2229 16.5021 14.2229 15.8507V5.05699H15.219V4.00351V3.16067C15.219 2.5093 14.7112 2.00173 14.0601 2.00173ZM6.27355 1.05348H10.7272V2.00173H6.27355V1.05348ZM13.1598 15.8507C13.1598 15.9179 13.131 15.9465 13.064 15.9465H3.93672C3.86971 15.9465 3.84091 15.9179 3.84091 15.8507V5.05697H13.1598V15.8507ZM14.1559 4.00349H2.84482V3.16065C2.84482 3.09362 2.87362 3.05522 2.94063 3.05522H14.0601C14.1271 3.05522 14.1559 3.09362 14.1559 3.16065V4.00349Z" fill="#333333"/>
<path d="M11.4933 6.29252H10.4302V15.0079H11.4933V6.29252Z" fill="#333333"/>
<path d="M9.04157 6.29252H7.97852V15.0079H9.04157V6.29252Z" fill="#333333"/>
<path d="M6.58945 6.29252H5.52637V15.0079H6.58945V6.29252Z" fill="#333333"/>
</g>
<defs>
<clipPath id="clip0">
<rect width="17" height="17" fill="white"/>
</clipPath>
</defs>
</svg>
