<svg width="62" height="60" viewBox="0 0 62 60" fill="none" xmlns="http://www.w3.org/2000/svg">
<path d="M53.1429 22.8589C53.1429 10.5697 43.2339 0.660736 31 0.660736C18.7661 0.660736 8.85714 10.5697 8.85714 22.8036C8.85714 22.8036 8.85714 22.8036 8.85714 22.8589C3.93036 23.1357 0 27.2322 0 32.2143V33.3214C0 38.525 4.20714 42.7322 9.41071 42.7322H9.90893L13.8393 48.9875C16.6071 53.4161 21.3125 56.0179 26.5161 56.0179H27.2911C27.7893 57.9 29.5054 59.3393 31.5536 59.3393C33.9893 59.3393 35.9821 57.3464 35.9821 54.9107C35.9821 52.475 33.9893 50.4822 31.5536 50.4822C29.5054 50.4822 27.7893 51.9214 27.2911 53.8036H26.5161C22.0875 53.8036 18.0464 51.5339 15.7214 47.7697L12.5107 42.7322H13.2857C14.5036 42.7322 15.5 41.7357 15.5 40.5179V25.0179C15.5 23.8 14.5036 22.8036 13.2857 22.8036H11.0714C11.0714 11.7875 19.9839 2.87502 31 2.87502C42.0161 2.87502 50.9286 11.7875 50.9286 22.8036H48.7143C47.4964 22.8036 46.5 23.8 46.5 25.0179V40.5179C46.5 41.7357 47.4964 42.7322 48.7143 42.7322H52.5893C57.7929 42.7322 62 38.525 62 33.3214V32.2143C62 27.2322 58.0696 23.1357 53.1429 22.8589ZM31.5536 52.6964C32.7714 52.6964 33.7679 53.6929 33.7679 54.9107C33.7679 56.1286 32.7714 57.125 31.5536 57.125C30.3357 57.125 29.3393 56.1286 29.3393 54.9107C29.3393 53.6929 30.3357 52.6964 31.5536 52.6964ZM13.2857 25.0179V40.5179H9.41071C5.425 40.5179 2.21429 37.3072 2.21429 33.3214V32.2143C2.21429 28.2286 5.425 25.0179 9.41071 25.0179H13.2857ZM59.7857 33.3214C59.7857 37.3072 56.575 40.5179 52.5893 40.5179H48.7143V25.0179H52.5893C56.575 25.0179 59.7857 28.2286 59.7857 32.2143V33.3214Z" fill="#333333"/>
<path d="M40.1893 9.01964C40.0786 8.96429 39.9125 8.85357 39.7464 8.74286C39.5804 8.63214 39.4143 8.52143 39.3036 8.46607C38.8054 8.13393 38.0857 8.3 37.8089 8.85357C37.5321 9.40714 37.6429 10.0161 38.1964 10.3482C38.3071 10.4036 38.4732 10.5143 38.6393 10.625C38.8054 10.7357 38.9714 10.8464 39.1375 10.9018C39.3036 11.0125 39.525 11.0679 39.6911 11.0679C40.0786 11.0679 40.4107 10.9018 40.6322 10.5143C40.9089 10.0161 40.7429 9.35179 40.1893 9.01964Z" fill="#333333"/>
<path d="M31.0002 6.19647C26.2948 6.19647 21.8663 8.24469 18.8216 11.7875C18.4341 12.2304 18.4895 12.95 18.9323 13.3375C19.1538 13.5036 19.3752 13.6143 19.652 13.6143C19.9841 13.6143 20.2609 13.5036 20.4823 13.2268C23.1395 10.1822 26.9591 8.41076 31.0002 8.41076C31.9966 8.41076 32.9931 8.52147 33.9895 8.7429C34.5984 8.85362 35.152 8.46612 35.3181 7.91254C35.4841 7.35897 35.0413 6.75004 34.4877 6.58397C33.3252 6.30719 32.1627 6.19647 31.0002 6.19647Z" fill="#54C5B0"/>
</svg>
