<svg width="16" height="18" viewBox="0 0 16 18" fill="none" xmlns="http://www.w3.org/2000/svg">
<path d="M7.93476 9.6989C7.9534 9.6989 7.97203 9.6989 7.9944 9.6989C8.00185 9.6989 8.00931 9.6989 8.01676 9.6989C8.02795 9.6989 8.04286 9.6989 8.05404 9.6989C9.14619 9.68027 10.0296 9.29634 10.6819 8.56202C12.117 6.94429 11.8784 4.17105 11.8523 3.9064C11.7592 1.91965 10.8198 0.969145 10.0445 0.525575C9.46675 0.193829 8.79208 0.0149099 8.03913 0H8.01304C8.00931 0 8.00185 0 7.99813 0H7.97576C7.56201 0 6.74942 0.0670946 5.97038 0.510665C5.18761 0.954235 4.23337 1.90474 4.14018 3.9064C4.11409 4.17105 3.87553 6.94429 5.31061 8.56202C5.9592 9.29634 6.84261 9.68027 7.93476 9.6989ZM5.13542 3.99959C5.13542 3.9884 5.13915 3.97722 5.13915 3.96977C5.26216 1.29716 7.15944 1.01015 7.97203 1.01015H7.98694C7.9944 1.01015 8.00558 1.01015 8.01676 1.01015C9.02318 1.03251 10.7341 1.44253 10.8496 3.96977C10.8496 3.98095 10.8496 3.99213 10.8534 3.99959C10.8571 4.02568 11.118 6.56037 9.93269 7.8948C9.46303 8.4241 8.83681 8.68503 8.01304 8.69248C8.00558 8.69248 8.00185 8.69248 7.9944 8.69248C7.98694 8.69248 7.98322 8.69248 7.97576 8.69248C7.15572 8.68503 6.52577 8.4241 6.05984 7.8948C4.87823 6.56782 5.13169 4.02195 5.13542 3.99959Z" fill="black"/>
<path d="M15.6544 14.2986C15.6544 14.2949 15.6544 14.2912 15.6544 14.2874C15.6544 14.2576 15.6507 14.2278 15.6507 14.1942C15.6283 13.4562 15.5798 11.7304 13.9621 11.1787C13.9509 11.175 13.936 11.1713 13.9248 11.1675C12.2437 10.7389 10.8459 9.76972 10.831 9.75854C10.6036 9.59826 10.2905 9.65417 10.1303 9.88155C9.96997 10.1089 10.0259 10.422 10.2533 10.5823C10.3166 10.627 11.8002 11.6596 13.6565 12.1367C14.525 12.4461 14.6219 13.3742 14.648 14.2241C14.648 14.2576 14.648 14.2874 14.6517 14.3172C14.6554 14.6527 14.633 15.1708 14.5734 15.469C13.9696 15.812 11.6026 16.9973 8.00186 16.9973C4.41603 16.9973 2.03417 15.8082 1.42659 15.4653C1.36695 15.1671 1.34086 14.649 1.34831 14.3135C1.34831 14.2837 1.35204 14.2539 1.35204 14.2203C1.37813 13.3705 1.47505 12.4423 2.34355 12.1329C4.19983 11.6558 5.68337 10.6196 5.74674 10.5786C5.97411 10.4183 6.03003 10.1052 5.86974 9.87782C5.70946 9.65044 5.39635 9.59453 5.16898 9.75481C5.15407 9.76599 3.76372 10.7351 2.07517 11.1638C2.06026 11.1675 2.04908 11.1713 2.03789 11.175C0.420169 11.7304 0.371711 13.4562 0.349347 14.1905C0.349347 14.2241 0.349346 14.2539 0.345619 14.2837C0.345619 14.2874 0.345619 14.2912 0.345619 14.2949C0.341891 14.4887 0.338164 15.4839 0.535721 15.9834C0.572995 16.0803 0.64009 16.1623 0.72955 16.2183C0.841374 16.2928 3.52143 18 8.00559 18C12.4897 18 15.1698 16.2891 15.2816 16.2183C15.3674 16.1623 15.4382 16.0803 15.4755 15.9834C15.6618 15.4877 15.6581 14.4924 15.6544 14.2986Z" fill="black"/>
</svg>
