<svg width="23" height="25" viewBox="0 0 23 25" fill="none" xmlns="http://www.w3.org/2000/svg">
<path d="M11.4095 13.4707C11.4354 13.4707 11.4613 13.4707 11.4924 13.4707C11.5027 13.4707 11.5131 13.4707 11.5234 13.4707C11.539 13.4707 11.5597 13.4707 11.5752 13.4707C13.0921 13.4448 14.319 12.9116 15.225 11.8917C17.2182 9.64485 16.8869 5.79313 16.8506 5.42555C16.7212 2.66618 15.4166 1.34603 14.3397 0.729965C13.5373 0.269207 12.6003 0.0207082 11.5545 0H11.5183C11.5131 0 11.5027 0 11.4975 0H11.4665C10.8918 0 9.76323 0.093187 8.68123 0.709257C7.59404 1.32533 6.26872 2.64548 6.13929 5.42555C6.10305 5.79313 5.77172 9.64485 7.76489 11.8917C8.66569 12.9116 9.89266 13.4448 11.4095 13.4707ZM7.52157 5.55498C7.52157 5.53945 7.52674 5.52392 7.52674 5.51356C7.69758 1.80162 10.3327 1.40298 11.4613 1.40298H11.482C11.4924 1.40298 11.5079 1.40298 11.5234 1.40298C12.9212 1.43404 15.2975 2.00352 15.458 5.51356C15.458 5.5291 15.458 5.54463 15.4632 5.55498C15.4683 5.59122 15.8307 9.11162 14.1844 10.965C13.5321 11.7001 12.6624 12.0625 11.5183 12.0729C11.5079 12.0729 11.5027 12.0729 11.4924 12.0729C11.482 12.0729 11.4768 12.0729 11.4665 12.0729C10.3275 12.0625 9.45261 11.7001 8.80547 10.965C7.16435 9.12197 7.51639 5.58604 7.52157 5.55498Z" fill="#54C5B0"/>
<path d="M22.1311 19.8591C22.1311 19.8539 22.1311 19.8488 22.1311 19.8436C22.1311 19.8022 22.126 19.7608 22.126 19.7142C22.0949 18.6891 22.0276 16.2921 19.7807 15.5259C19.7652 15.5207 19.7445 15.5156 19.729 15.5104C17.3941 14.915 15.4527 13.569 15.432 13.5535C15.1162 13.3308 14.6813 13.4085 14.4587 13.7243C14.2361 14.0401 14.3138 14.475 14.6296 14.6976C14.7176 14.7597 16.7781 16.1938 19.3562 16.8564C20.5625 17.2861 20.6971 18.5752 20.7333 19.7556C20.7333 19.8022 20.7333 19.8436 20.7385 19.885C20.7437 20.3509 20.7126 21.0705 20.6298 21.4847C19.7911 21.961 16.5037 23.6073 11.5026 23.6073C6.52231 23.6073 3.21417 21.9558 2.37031 21.4795C2.28748 21.0654 2.25124 20.3458 2.26159 19.8798C2.26159 19.8384 2.26677 19.797 2.26677 19.7504C2.30301 18.57 2.43761 17.2809 3.64386 16.8512C6.22204 16.1886 8.28251 14.7494 8.37052 14.6924C8.68632 14.4698 8.76397 14.0349 8.54136 13.7191C8.31875 13.4033 7.88387 13.3257 7.56807 13.5483C7.54736 13.5638 5.61632 14.9099 3.27112 15.5052C3.25041 15.5104 3.23488 15.5156 3.21935 15.5207C0.972504 16.2921 0.905202 18.6891 0.87414 19.709C0.87414 19.7556 0.87414 19.797 0.868963 19.8384C0.868963 19.8436 0.868963 19.8488 0.868963 19.8539C0.863786 20.1231 0.858609 21.5054 1.13299 22.1991C1.18476 22.3337 1.27795 22.4476 1.4022 22.5253C1.55751 22.6288 5.27981 24.9999 11.5078 24.9999C17.7358 24.9999 21.4581 22.6237 21.6134 22.5253C21.7325 22.4476 21.8309 22.3337 21.8826 22.1991C22.1415 21.5106 22.1363 20.1283 22.1311 19.8591Z" fill="#333333"/>
</svg>
