<svg width="21" height="13" viewBox="0 0 21 13" fill="none" xmlns="http://www.w3.org/2000/svg">
<path fill-rule="evenodd" clip-rule="evenodd" d="M18.0734 8.11406C18.77 8.79416 19.5052 9.43404 20.13 10.1827C20.406 10.5154 20.6673 10.8588 20.8672 11.2449C21.1504 11.7937 20.8939 12.3978 20.4017 12.4305L17.3424 12.4291C16.5533 12.4946 15.9239 12.177 15.3946 11.6375C14.971 11.206 14.5788 10.7469 14.1715 10.3009C14.0045 10.1186 13.8297 9.94704 13.6209 9.81146C13.2033 9.54037 12.8408 9.62337 12.6021 10.059C12.359 10.502 12.3039 10.9926 12.28 11.4863C12.2473 12.2067 12.0295 12.3961 11.3059 12.4291C9.75937 12.502 8.29166 12.268 6.92821 11.4879C5.72614 10.8001 4.79398 9.82919 3.98265 8.73C2.40295 6.58963 1.19322 4.23772 0.105966 1.81992C-0.138768 1.27519 0.0402112 0.982778 0.641246 0.972429C1.63929 0.95304 2.6372 0.954421 3.63642 0.971049C4.04205 0.976983 4.31059 1.20964 4.46721 1.59285C5.00719 2.92057 5.6679 4.18377 6.49725 5.35465C6.71811 5.66638 6.94332 5.97811 7.26402 6.19752C7.6188 6.44046 7.88893 6.35994 8.05583 5.96473C8.16174 5.71413 8.20811 5.44421 8.23198 5.17581C8.31105 4.25242 8.32147 3.33062 8.18278 2.41047C8.09764 1.83621 7.77418 1.46445 7.20116 1.35578C6.90875 1.30037 6.95229 1.19156 7.09387 1.02466C7.33978 0.736803 7.57105 0.557617 8.03209 0.557617H11.4896C12.0339 0.665046 12.1548 0.909572 12.2293 1.45727L12.2323 5.29787C12.2264 5.50989 12.3382 6.13908 12.7201 6.27942C13.0258 6.37933 13.2272 6.1348 13.4106 5.94099C14.2385 5.06238 14.8293 4.02404 15.3571 2.94885C15.5914 2.47609 15.7928 1.9851 15.988 1.49453C16.1326 1.1305 16.3595 0.951384 16.7696 0.959319L20.0972 0.962286C20.1959 0.962286 20.2957 0.963735 20.3913 0.980087C20.952 1.07565 21.1057 1.31686 20.9325 1.86443C20.6596 2.72351 20.1287 3.43943 19.6096 4.15865C19.0546 4.92652 18.4611 5.66811 17.9108 6.44053C17.4052 7.14589 17.4453 7.50143 18.0734 8.11406Z" fill="white"/>
</svg>
