<svg width="27" height="27" viewBox="0 0 27 27" fill="none" xmlns="http://www.w3.org/2000/svg">
<g clip-path="url(#clip0)">
<path d="M26.8643 12.5777H25.5689V6.61864C25.5689 5.19002 24.4066 4.02778 22.978 4.02778H21.2235L19.428 0.799574C19.1544 0.30622 18.6336 0 18.0688 0C17.8056 0 17.5444 0.0678876 17.3138 0.195842L10.4232 4.0277H2.72623C1.29761 4.0277 0.135376 5.18993 0.135376 6.61856V24.4091C0.135376 25.8377 1.29761 26.9999 2.72623 26.9999H22.978C24.4066 26.9999 25.5689 25.8377 25.5689 24.4091V19.1843H26.8643V12.5777ZM22.978 5.06408C23.776 5.06408 24.4278 5.67031 24.5154 6.44602H22.5681L21.8001 5.06408H22.978ZM17.818 1.1016C18.061 0.965343 18.388 1.06064 18.5222 1.30268L21.3825 6.44553H8.20747L17.818 1.1016ZM24.5325 24.4091C24.5325 25.2661 23.835 25.9636 22.9779 25.9636H2.72623C1.86917 25.9636 1.17167 25.2661 1.17167 24.4091V6.61864C1.17167 5.76158 1.86917 5.06408 2.72623 5.06408H8.55981L6.07465 6.4461H3.05011C2.76356 6.4461 2.53192 6.67822 2.53192 6.96428C2.53192 7.25035 2.76356 7.48247 3.05011 7.48247H4.21081H23.1444H24.5325V12.5782H20.7431C18.9834 12.5782 17.5512 14.0104 17.5512 15.7701V15.9929C17.5512 17.7527 18.9835 19.1849 20.7431 19.1849H24.5325V24.4091ZM25.8279 18.148H25.5689H20.7431C19.5545 18.148 18.5875 17.1811 18.5875 15.9924V15.7695C18.5875 14.5808 19.5544 13.6139 20.7431 13.6139H25.5689H25.8279V18.148ZM22.3303 15.9235C22.3303 16.5557 21.8183 17.0676 21.1862 17.0676C20.554 17.0676 20.0421 16.5556 20.0421 15.9235C20.0421 15.2914 20.5541 14.7794 21.1862 14.7794C21.8184 14.7793 22.3303 15.2918 22.3303 15.9235Z" fill="black"/>
<rect x="2.00012" y="6" width="25" height="2" rx="1" fill="#54C5B0"/>
<circle cx="21.2999" cy="16" r="1.5" fill="#54C5B0"/>
</g>
<defs>
<clipPath id="clip0">
<rect width="27" height="27" fill="white"/>
</clipPath>
</defs>
</svg>
