<svg width="63" height="63" viewBox="0 0 63 63" fill="none" xmlns="http://www.w3.org/2000/svg">
<g clip-path="url(#clip0)">
<path d="M31.5013 15.1666C22.4946 15.1666 15.168 22.4933 15.168 31.5C15.168 40.5066 22.4946 47.8333 31.5013 47.8333C40.508 47.8333 47.8346 40.5066 47.8346 31.5C47.8346 22.4933 40.508 15.1666 31.5013 15.1666ZM31.5013 45.5C23.7815 45.5 17.5013 39.2198 17.5013 31.5C17.5013 23.7801 23.7815 17.5 31.5013 17.5C39.2211 17.5 45.5013 23.7801 45.5013 31.5C45.5013 39.2198 39.2211 45.5 31.5013 45.5Z" fill="#54C5B0"/>
<path d="M59.7567 24.5H57.4023C56.8015 22.2693 55.9183 20.1343 54.7657 18.1335L56.4293 16.4698C57.0418 15.8573 57.379 15.0418 57.379 14.1762C57.379 13.3093 57.0418 12.495 56.4293 11.8813L51.1175 6.5695C49.8925 5.34567 47.7563 5.34333 46.529 6.5695L44.8653 8.23317C42.8633 7.08167 40.7295 6.1985 38.5 5.59767V3.24333C38.5 1.45483 37.0452 0 35.2567 0H27.7433C25.9548 0 24.5 1.45483 24.5 3.24333V5.59767C22.2705 6.1985 20.1367 7.08167 18.1335 8.23433L16.4698 6.57067C15.2437 5.34333 13.1063 5.34567 11.8813 6.57067L6.5695 11.8825C5.957 12.495 5.61983 13.3105 5.61983 14.1773C5.61983 15.043 5.957 15.8573 6.5695 16.471L8.23317 18.1347C7.08167 20.1343 6.19733 22.2693 5.59767 24.5H3.24333C1.45483 24.5 0 25.9548 0 27.7433V35.2555C0 37.0452 1.45483 38.5 3.24333 38.5H5.59767C6.1985 40.7295 7.08167 42.8633 8.23433 44.8665L6.57067 46.5302C5.95817 47.1427 5.621 47.9582 5.621 48.8238C5.621 49.6907 5.95817 50.505 6.57067 51.1187L11.8825 56.4305C13.1075 57.6567 15.2448 57.6578 16.471 56.4305L18.1347 54.7668C20.1378 55.9183 22.2717 56.8027 24.5012 57.4035V59.7578C24.5012 61.5463 25.956 63.0012 27.7445 63.0012H35.2567C37.0452 63.0012 38.5 61.5463 38.5 59.7578V57.4035C40.7295 56.8027 42.8633 55.9195 44.8665 54.7668L46.5302 56.4305C47.7575 57.6578 49.8925 57.6555 51.1187 56.4305L56.4305 51.1187C57.043 50.5062 57.3802 49.6907 57.3802 48.8238C57.3802 47.9582 57.043 47.1438 56.4305 46.5302L54.7668 44.8665C55.9183 42.8633 56.8027 40.7295 57.4035 38.5H59.7578C61.5463 38.5 63.0012 37.0452 63.0012 35.2567V27.7433C63 25.9548 61.5452 24.5 59.7567 24.5ZM60.6667 35.2567C60.6667 35.7583 60.2583 36.1667 59.7567 36.1667H55.566L55.356 37.0685C54.7482 39.6783 53.7238 42.1552 52.3075 44.4313L51.8175 45.2177L54.7797 48.1798C55.1355 48.5357 55.1355 49.1132 54.7797 49.4678L49.4678 54.7797C49.1132 55.1343 48.5357 55.1367 48.1798 54.7797L45.2177 51.8175L44.4313 52.3075C42.1563 53.7238 39.6795 54.7493 37.0685 55.356L36.1667 55.566V59.7567C36.1667 60.2583 35.7583 60.6667 35.2567 60.6667H27.7433C27.2417 60.6667 26.8333 60.2583 26.8333 59.7567V55.566L25.9315 55.356C23.3217 54.7482 20.8448 53.7238 18.5687 52.3075L17.7823 51.8175L14.8202 54.7797C14.4632 55.1367 13.8857 55.1343 13.5322 54.7797L8.22033 49.4678C7.8645 49.112 7.8645 48.5345 8.22033 48.1798L11.1825 45.2177L10.6925 44.4313C9.27617 42.1563 8.25067 39.6795 7.644 37.0685L7.434 36.1667H3.24333C2.74167 36.1667 2.33333 35.7583 2.33333 35.2567V27.7433C2.33333 27.2417 2.74167 26.8333 3.24333 26.8333H7.434L7.644 25.9315C8.25183 23.3205 9.27617 20.8437 10.6925 18.5687L11.1825 17.7823L8.22033 14.8202C7.8645 14.4643 7.8645 13.8868 8.22033 13.5322L13.5322 8.22033C13.8868 7.86567 14.4643 7.86333 14.8202 8.22033L17.7823 11.1825L18.5687 10.6925C20.8437 9.27617 23.3205 8.25067 25.9315 7.644L26.8333 7.434V3.24333C26.8333 2.74167 27.2417 2.33333 27.7433 2.33333H35.2555C35.7583 2.33333 36.1667 2.74167 36.1667 3.24333V7.434L37.0685 7.644C39.6783 8.25183 42.1552 9.27617 44.4313 10.6925L45.2177 11.1825L48.1798 8.22033C48.5368 7.86333 49.1143 7.86567 49.4678 8.22033L54.7797 13.5322C55.1355 13.888 55.1355 14.4655 54.7797 14.8202L51.8175 17.7823L52.3075 18.5687C53.7238 20.8425 54.7493 23.3193 55.356 25.9315L55.566 26.8333H59.7567C60.2583 26.8333 60.6667 27.2417 60.6667 27.7433V35.2567Z" fill="#333333"/>
<path d="M31.4987 19.8334C25.0657 19.8334 19.832 25.067 19.832 31.5C19.832 37.933 25.0657 43.1667 31.4987 43.1667C37.9317 43.1667 43.1654 37.933 43.1654 31.5C43.1654 25.067 37.9317 19.8334 31.4987 19.8334ZM31.4987 40.8334C26.3525 40.8334 22.1654 36.6462 22.1654 31.5C22.1654 26.3539 26.3525 22.1667 31.4987 22.1667C36.6449 22.1667 40.832 26.3539 40.832 31.5C40.832 36.6462 36.6449 40.8334 31.4987 40.8334Z" fill="#333333"/>
</g>
<defs>
<clipPath id="clip0">
<rect width="63" height="63" fill="white"/>
</clipPath>
</defs>
</svg>
