<svg width="63" height="63" viewBox="0 0 63 63" fill="none" xmlns="http://www.w3.org/2000/svg">
<path d="M47.0039 3.19922H18.457C8.27971 3.19922 0 11.4789 0 21.6562V33.9609C0 34.6406 0.550827 35.1914 1.23047 35.1914C1.91011 35.1914 2.46094 34.6406 2.46094 33.9609V26.5781H4.4667C5.14634 26.5781 5.69717 26.0273 5.69717 25.3477C5.69717 24.668 5.14634 24.1172 4.4667 24.1172H2.46094V21.6562C2.46094 12.8358 9.63659 5.65871 18.457 5.65871H39.635C35.2433 8.80698 31.377 15.328 31.0328 24.1172H29.0391C28.3594 24.1172 27.8086 24.668 27.8086 25.3477C27.8086 26.0273 28.3594 26.5781 29.0391 26.5781H31.0078V55.745L27.7855 52.7477C27.313 52.3084 26.5815 52.3084 26.109 52.7477L21.687 56.8611L17.6044 52.7785C17.1237 52.2978 16.345 52.2978 15.8644 52.7785L11.7813 56.8611L7.35926 52.7477C6.88726 52.3084 6.15571 52.3084 5.68323 52.7477L2.46094 55.745V43.8047C2.46094 43.1255 1.91011 42.5742 1.23047 42.5742C0.550827 42.5742 0 43.1255 0 43.8047V58.5703C0 59.0601 0.290314 59.5028 0.739242 59.6984C1.18769 59.894 1.71016 59.8046 2.06873 59.4711L6.52148 55.3288L10.9742 59.4711C11.4592 59.9224 12.2143 59.9089 12.6825 59.4403L16.7344 55.3889L20.7863 59.4403C21.2544 59.9089 22.0095 59.9224 22.4945 59.4715L26.9473 55.3288L31.4 59.4711C31.76 59.8056 32.2825 59.8931 32.7295 59.6984C33.1784 59.5028 33.4688 59.0601 33.4688 58.5703V47.4961H47.0039C57.1226 47.4961 63 35.7658 63 25.3477C63 14.8795 57.0909 3.19922 47.0039 3.19922ZM33.4688 45.0352V37.1895C34.8525 40.2205 36.916 43.0861 39.6346 45.0352H33.4688ZM47.0039 45.0352C39.5408 45.0352 33.4688 36.2037 33.4688 25.3477C33.4688 14.4941 39.5399 5.66256 47.002 5.66016H47.0039C54.467 5.66016 60.5391 14.4917 60.5391 25.3477C60.5391 36.2037 54.467 45.0352 47.0039 45.0352Z" fill="#333333"/>
<path d="M47.0039 15.5039C43.5538 15.5039 40.8516 19.8279 40.8516 25.3477C40.8516 30.8675 43.5538 35.1914 47.0039 35.1914C50.454 35.1914 53.1562 30.8675 53.1562 25.3477C53.1562 19.8279 50.454 15.5039 47.0039 15.5039ZM47.0039 32.7305C45.2582 32.7305 43.3125 29.6985 43.3125 25.3477C43.3125 20.9968 45.2582 17.9648 47.0039 17.9648C48.7496 17.9648 50.6953 20.9968 50.6953 25.3477C50.6953 29.6985 48.7496 32.7305 47.0039 32.7305Z" fill="#54C5B0"/>
<path d="M24.1542 26.5781C24.8338 26.5781 25.3847 26.0273 25.3847 25.3477C25.3847 24.668 24.8338 24.1172 24.1542 24.1172H19.1953C18.5157 24.1172 17.9648 24.668 17.9648 25.3477C17.9648 26.0273 18.5157 26.5781 19.1953 26.5781H24.1542Z" fill="#54C5B0"/>
<path d="M14.3104 26.5781C14.9901 26.5781 15.5409 26.0273 15.5409 25.3477C15.5409 24.668 14.9901 24.1172 14.3104 24.1172H9.35156C8.67192 24.1172 8.12109 24.668 8.12109 25.3477C8.12109 26.0273 8.67192 26.5781 9.35156 26.5781H14.3104Z" fill="#54C5B0"/>
<path d="M2.46094 38.8828C2.46094 39.5625 1.91011 40.1133 1.23047 40.1133C0.550827 40.1133 0 39.5625 0 38.8828C0 38.2032 0.550827 37.6523 1.23047 37.6523C1.91011 37.6523 2.46094 38.2032 2.46094 38.8828Z" fill="#54C5B0"/>
</svg>
