<svg width="63" height="63" viewBox="0 0 63 63" fill="none" xmlns="http://www.w3.org/2000/svg">
<path d="M26.874 60.9328C27.7107 60.9328 28.3875 60.2561 28.3875 59.4193C28.3875 58.5826 27.7107 57.9059 26.874 57.9059C14.5201 57.9059 4.47949 47.8652 4.47949 35.5113V14.4088L26.874 5.06953L49.2686 14.4088V23.2066C49.2686 24.0434 49.9453 24.7201 50.782 24.7201C51.6188 24.7201 52.2955 24.0434 52.2955 23.2066V13.4121C52.2955 12.8092 51.9264 12.2555 51.3727 12.0217L27.4523 2.04258C27.0832 1.88262 26.6648 1.88262 26.2957 2.04258L2.3877 12.0094C1.82168 12.2432 1.46484 12.7969 1.46484 13.3998V35.5113C1.46484 49.5264 12.859 60.9328 26.874 60.9328Z" fill="#333333"/>
<path d="M43.4486 35.1299C39.1174 35.1299 35.5859 38.649 35.5859 42.9926C35.5859 47.3361 39.1051 50.8553 43.4486 50.8553C47.7799 50.8553 51.3113 47.3361 51.3113 42.9926C51.3113 38.649 47.7799 35.1299 43.4486 35.1299ZM43.4486 47.8283C40.7785 47.8283 38.6006 45.6504 38.6006 42.9803C38.6006 40.3102 40.7785 38.1322 43.4486 38.1322C46.1187 38.1322 48.2967 40.3102 48.2967 42.9803C48.2967 45.6504 46.1187 47.8283 43.4486 47.8283Z" fill="#333333"/>
<path d="M50.5963 30.0603C49.6242 29.5189 48.6029 29.1006 47.5447 28.7929V27.501C47.5447 26.0613 46.3758 24.9047 44.9484 24.9047H41.9584C40.5187 24.9047 39.3621 26.0736 39.3621 27.501V28.7929C38.3039 29.1006 37.2826 29.5189 36.3105 30.0603L35.4 29.1498C34.9078 28.6576 34.2557 28.3869 33.5666 28.3869C32.8775 28.3869 32.2131 28.6576 31.7332 29.1498L29.6045 31.2539C29.1123 31.7461 28.8416 32.3982 28.8416 33.0873C28.8416 33.7886 29.1123 34.4408 29.6045 34.9207L30.515 35.8312C29.9736 36.8033 29.5553 37.8246 29.2477 38.8828H27.9557C26.516 38.8828 25.3594 40.0517 25.3594 41.4791V44.4568C25.3594 45.8965 26.5283 47.0531 27.9557 47.0531H29.2477C29.5553 48.1113 29.9736 49.1326 30.515 50.1047L29.6045 51.0152C28.5955 52.0242 28.5955 53.6853 29.6045 54.6943L31.7086 56.7984C32.2008 57.2906 32.8529 57.5613 33.542 57.5613C34.2311 57.5613 34.8955 57.2906 35.3754 56.7984L36.2859 55.8879C37.258 56.4293 38.2793 56.8476 39.3375 57.1553V58.4472C39.3375 59.8869 40.5064 61.0435 41.9338 61.0435H44.9115C46.3512 61.0435 47.5078 59.8746 47.5078 58.4472V57.1553C48.566 56.8476 49.5873 56.4293 50.5594 55.8879L51.4699 56.7984C51.9621 57.2906 52.6143 57.5613 53.3033 57.5613C53.9924 57.5613 54.6568 57.2906 55.1367 56.7984L57.2408 54.6943C57.733 54.2021 58.0037 53.55 58.0037 52.8486C58.0037 52.1595 57.733 51.4951 57.2408 51.0152L56.3303 50.1047C56.8717 49.1326 57.29 48.1113 57.5977 47.0531H58.9389C60.3785 47.0531 61.5352 45.8842 61.5352 44.4568V41.4791C61.5352 40.0394 60.3662 38.8828 58.9389 38.8828H57.6469C57.3393 37.8246 56.9209 36.8033 56.3795 35.8312L57.29 34.9207C57.7822 34.4285 58.0529 33.7763 58.0529 33.075C58.0529 32.3859 57.7822 31.7215 57.29 31.2416L55.1859 29.1375C54.6937 28.6453 54.0416 28.3746 53.3525 28.3746C52.6635 28.3746 51.999 28.6453 51.5068 29.1375L50.5963 30.0603ZM53.3525 31.5738L54.8783 33.0996L53.4141 34.5638C52.9096 35.0683 52.8234 35.8681 53.2295 36.4711C54.0908 37.7631 54.6814 39.1904 54.9891 40.7162C55.1244 41.4176 55.752 41.9344 56.4656 41.9344H58.5328V44.0877H56.4656C55.752 44.0877 55.1244 44.5922 54.9891 45.3058C54.6937 46.8316 54.1031 48.259 53.2295 49.551C52.8234 50.1539 52.9096 50.9414 53.4141 51.4582L54.8783 52.9224L53.3525 54.4482L51.8883 52.984C51.3838 52.4795 50.584 52.3933 49.9811 52.7994C48.6891 53.6607 47.2617 54.2513 45.7359 54.559C45.0346 54.6943 44.5178 55.3219 44.5178 56.0355V58.1027H42.3645V56.0355C42.3645 55.3095 41.86 54.6943 41.1463 54.559C39.6205 54.2636 38.1932 53.673 36.9012 52.7994C36.2982 52.3933 35.5107 52.4795 34.9939 52.984L33.5297 54.4482L32.0039 52.9224L33.4682 51.4582C33.9727 50.9537 34.0588 50.1539 33.6527 49.551C32.7914 48.259 32.2008 46.8316 31.8932 45.3058C31.7578 44.6045 31.1303 44.0877 30.4166 44.0877H28.3494V41.9344H30.4166C31.1303 41.9344 31.7578 41.4299 31.8932 40.7162C32.1885 39.1904 32.7791 37.7631 33.6527 36.4711C34.0588 35.8681 33.9727 35.0806 33.4682 34.5638L32.0285 33.0996L33.5543 31.5738L35.0186 33.0381C35.523 33.5426 36.3229 33.6287 36.9258 33.2226C38.2178 32.3613 39.6451 31.7707 41.1709 31.4631C41.8723 31.3277 42.3891 30.7002 42.3891 29.9865V27.9193H44.5424V29.9865C44.5424 30.7002 45.0469 31.3277 45.7605 31.4631C47.2863 31.7707 48.7137 32.3613 50.0057 33.2226C50.6086 33.6287 51.3961 33.5426 51.9129 33.0381L53.3525 31.5738Z" fill="#54C5B0"/>
</svg>
