<svg width="63" height="63" viewBox="0 0 63 63" fill="none" xmlns="http://www.w3.org/2000/svg">
<g clip-path="url(#clip0)">
<path d="M29.8161 45.6513C29.8161 46.4431 29.1744 47.0849 28.3826 47.0849C25.674 47.0849 22.9915 46.4048 20.6252 45.1182C15.3805 42.2666 12.1226 36.7897 12.1226 30.825C12.1226 21.8592 19.4167 14.565 28.3826 14.565C35.3461 14.565 41.5323 18.9905 43.7766 25.5772C44.0319 26.3266 43.6313 27.141 42.8819 27.3963C42.1325 27.6515 41.3181 27.2512 41.0626 26.5016C39.2143 21.0768 34.1187 17.4319 28.3827 17.4319C20.9979 17.4319 14.9898 23.4401 14.9898 30.8249C14.9898 35.7383 17.674 40.2499 21.9949 42.5993C23.9423 43.6581 26.1512 44.2178 28.3827 44.2178C29.1744 44.2178 29.8161 44.8596 29.8161 45.6513ZM37.8263 30.8249C37.8263 36.0321 33.5898 40.2687 28.3826 40.2687C23.175 40.2687 18.9383 36.0323 18.9383 30.8249C18.9383 25.6174 23.175 21.381 28.3826 21.381C33.59 21.381 37.8263 25.6176 37.8263 30.8249ZM34.9592 30.8249C34.9592 27.1983 32.009 24.2481 28.3826 24.2481C24.7559 24.2481 21.8053 27.1983 21.8053 30.8249C21.8053 34.4512 24.7559 37.4016 28.3826 37.4016C32.009 37.4016 34.9592 34.4512 34.9592 30.8249ZM25.6012 58.1883C24.3776 57.9503 23.7643 57.6206 23.5555 57.4582L22.9074 51.2138C22.8494 50.6551 22.4703 50.1817 21.9379 50.0028C19.3674 49.1396 17.0281 47.7853 14.9847 45.9772C14.5634 45.6048 13.9637 45.5128 13.4499 45.7421L7.70328 48.3101C7.16474 48.1097 5.76768 46.9089 4.44468 44.6173C3.12248 42.3274 2.78066 40.518 2.87575 39.95L7.9817 36.2502C8.43566 35.9213 8.6561 35.358 8.54636 34.8085C8.28561 33.5034 8.15341 32.1622 8.15341 30.8222C8.15341 29.4651 8.28848 28.1099 8.55464 26.7944C8.66598 26.2437 8.44553 25.6788 7.99062 25.3492L2.87575 21.6434C2.7805 21.0755 3.12232 19.2659 4.44468 16.9759C5.76752 14.6848 7.16442 13.4838 7.70328 13.2829L13.4884 15.8681C14.0011 16.0971 14.5999 16.0059 15.0207 15.6352C17.0541 13.8446 19.3796 12.5013 21.9329 11.643C22.4652 11.4639 22.844 10.9907 22.902 10.4321L23.556 4.13042C24.0001 3.76407 25.738 3.15545 28.3826 3.15545C31.0281 3.15545 32.7665 3.76486 33.2099 4.13105L33.8636 10.4321C33.9216 10.9907 34.3004 11.4641 34.8329 11.643C37.3847 12.5009 39.7106 13.8443 41.7453 15.6357C42.1664 16.0064 42.7648 16.0975 43.2774 15.8686L49.063 13.2836C49.6023 13.4854 50.9983 14.6862 52.3208 16.9759C53.6433 19.267 53.985 21.0771 53.8896 21.6443L48.7747 25.3497C48.3196 25.6794 48.0992 26.2447 48.2108 26.7955C48.2983 27.2272 48.3727 27.6693 48.4318 28.1096C48.537 28.8944 49.2594 29.4456 50.0431 29.3399C50.8278 29.2346 51.3786 28.5132 51.2734 27.7286C51.2472 27.5333 51.2184 27.3377 51.187 27.1426L55.6138 23.9357C57.7947 22.5583 56.5501 18.567 54.8038 15.5424C53.8921 13.9639 52.8066 12.5886 51.7469 11.6697C49.9647 10.1247 48.7011 10.244 47.9353 10.6473L42.9305 12.8835C41.0229 11.3328 38.908 10.111 36.6224 9.23956L36.056 3.78031C35.9504 1.20504 31.8736 0.288208 28.3826 0.288208C24.6093 0.288208 20.8022 1.37181 20.7088 3.78923L20.1432 9.2394C17.857 10.1113 15.7421 11.3328 13.8355 12.8828L8.82191 10.6427C6.53924 9.44647 3.70704 12.5192 1.96179 15.5422C1.05021 17.1207 0.401933 18.7486 0.136251 20.126C-0.310855 22.4422 0.424392 23.4767 1.15677 23.9385L5.57845 27.1419C5.38444 28.3533 5.28633 29.5874 5.28633 30.822C5.28633 32.0392 5.38205 33.2577 5.57144 34.4559L1.15677 37.6549C0.424233 38.1167 -0.310855 39.1512 0.136251 41.4672C0.401933 42.8446 1.05021 44.4725 1.96179 46.051C3.7064 49.0729 6.53669 52.1434 8.81905 50.952L13.7949 48.7285C15.7134 50.2954 17.8441 51.529 20.1488 52.407L20.7093 57.806C20.7482 58.7337 21.3971 60.2919 25.0541 61.003C25.1464 61.021 25.2385 61.0296 25.3293 61.0296C26.0018 61.0296 26.6018 60.5541 26.735 59.8694C26.886 59.0919 26.3783 58.3393 25.6012 58.1883ZM62.8021 40.2361C61.9559 47.0322 58.5142 53.0919 53.1102 57.2992C48.5625 60.8399 43.0834 62.7119 37.4109 62.7119C36.3427 62.7119 35.268 62.6455 34.1911 62.5116C33.292 62.3994 32.3839 62.2369 31.4921 62.0286C30.8941 61.8889 30.4517 61.3841 30.3914 60.7731C30.2052 58.8826 30.2304 56.9634 30.4663 55.0688C32.2135 41.0392 45.0488 31.0467 59.0776 32.7931C59.978 32.9054 60.886 33.068 61.7766 33.2762C62.3742 33.4159 62.8167 33.9207 62.8769 34.5315C63.0633 36.4235 63.0379 38.3428 62.8021 40.2361ZM60.1019 35.8531C59.6425 35.7672 59.1816 35.6954 58.7228 35.6381C46.2636 34.0873 34.863 42.9622 33.3112 55.4228C33.2228 56.1337 33.1677 56.8483 33.1461 57.5633L46.2609 46.0735C46.8566 45.5516 47.7623 45.6119 48.2838 46.2071C48.8054 46.8026 48.7455 47.7083 48.1502 48.23L35.0329 59.7217C40.9023 60.3278 46.6785 58.673 51.349 55.0367C56.1485 51.3 59.2056 45.9178 59.9571 39.8815C60.1237 38.5451 60.172 37.1944 60.1019 35.8531Z" fill="#333333"/>
<path d="M29.8147 45.6514C29.8147 46.4432 29.1729 47.0849 28.3811 47.0849C25.6725 47.0849 22.99 46.4048 20.6237 45.1183C15.3791 42.2667 12.1211 36.7897 12.1211 30.8251C12.1211 21.8592 19.4153 14.5651 28.3811 14.5651C35.3446 14.5651 41.5308 18.9906 43.7751 25.5772C44.0304 26.3266 43.6298 27.141 42.8804 27.3964C42.131 27.6515 41.3166 27.2513 41.0611 26.5017C39.2128 21.0768 34.1172 17.432 28.3813 17.432C20.9965 17.432 14.9883 23.4401 14.9883 30.8249C14.9883 35.7383 17.6726 40.25 21.9934 42.5994C23.9408 43.6581 26.1497 44.2179 28.3813 44.2179C29.1729 44.2179 29.8147 44.8596 29.8147 45.6514ZM62.8006 40.2361C61.9545 47.0322 58.5127 53.092 53.1087 57.2993C48.5611 60.8399 43.0819 62.712 37.4094 62.712C36.3412 62.712 35.2666 62.6456 34.1897 62.5116C33.2905 62.3995 32.3824 62.237 31.4906 62.0287C30.8927 61.889 30.4502 61.3842 30.39 60.7732C30.2038 58.8827 30.2289 56.9635 30.4648 55.0688C32.212 41.0392 45.0473 31.0468 59.0761 32.7932C59.9765 32.9055 60.8846 33.0681 61.7751 33.2763C62.3727 33.416 62.8152 33.9207 62.8754 34.5316C63.0618 36.4235 63.0365 38.3429 62.8006 40.2361ZM60.1004 35.8531C59.6411 35.7673 59.1801 35.6955 58.7214 35.6381C46.2621 34.0873 34.8615 42.9622 33.3098 55.4229C33.2214 56.1338 33.1663 56.8483 33.1446 57.5633L46.2594 46.0735C46.8552 45.5517 47.7608 45.6119 48.2823 46.2071C48.804 46.8027 48.7441 47.7084 48.1487 48.23L35.0315 59.7218C40.9009 60.3278 46.6771 58.6731 51.3475 55.0368C56.147 51.3 59.2041 45.9179 59.9556 39.8816C60.1223 38.5452 60.1705 37.1945 60.1004 35.8531Z" fill="#54C5B0"/>
</g>
<defs>
<clipPath id="clip0">
<rect width="63" height="63" fill="white"/>
</clipPath>
</defs>
</svg>
